<svg width="16" height="16" viewBox="0 0 16 16" fill="none" xmlns="http://www.w3.org/2000/svg">
<path fill-rule="evenodd" clip-rule="evenodd" d="M7.24055 1.79897C7.4854 1.65781 7.76306 1.5835 8.0457 1.5835C8.32833 1.5835 8.60598 1.6578 8.85082 1.79895L8.85171 1.79946L13.0354 4.19014C13.2802 4.33149 13.4836 4.53473 13.625 4.77947C13.7665 5.02421 13.8411 5.30185 13.8414 5.58453V10.3663C13.8411 10.649 13.7665 10.9271 13.625 11.1718C13.4836 11.4166 13.2802 11.6198 13.0354 11.7611L13.0338 11.7621L8.85171 14.1518L8.85074 14.1524C8.60592 14.2935 8.3283 14.3678 8.0457 14.3678C7.76309 14.3678 7.48546 14.2935 7.24063 14.1524L7.2397 14.1518L3.05761 11.7621L3.056 11.7611C2.81119 11.6198 2.60785 11.4166 2.46638 11.1718C2.32491 10.9271 2.25029 10.6494 2.25 10.3668L2.25 5.58496C2.25029 5.30227 2.32491 5.02421 2.46638 4.77947C2.60785 4.53473 2.81119 4.33149 3.056 4.19015L3.05761 4.18922L7.2397 1.79946L7.24055 1.79897ZM8.0457 2.41683C7.90902 2.41683 7.77474 2.45281 7.65637 2.52115L7.65476 2.52208L6.20199 3.35223L10.8705 5.97007C11.0712 6.08262 11.1426 6.33657 11.0301 6.53729C10.9175 6.738 10.6636 6.80947 10.4629 6.69692L5.35812 3.83444L3.47267 4.91183L3.47198 4.91224C3.35403 4.98049 3.25606 5.07851 3.18786 5.1965C3.11955 5.31466 3.08351 5.4487 3.08333 5.58518V10.3661C3.08351 10.5026 3.11955 10.6366 3.18786 10.7548C3.25606 10.8728 3.35403 10.9708 3.47197 11.039L3.47267 11.0395L7.65637 13.4301C7.77474 13.4985 7.90902 13.5345 8.0457 13.5345C8.18239 13.5345 8.31667 13.4985 8.43504 13.4301L8.43665 13.4292L12.6187 11.0395L12.6194 11.039C12.7374 10.9708 12.8353 10.8728 12.9036 10.7548C12.9719 10.6366 13.0079 10.5024 13.0081 10.3659V5.58539C13.0079 5.44884 12.9719 5.31472 12.9036 5.1965C12.8353 5.07852 12.7374 4.9805 12.6194 4.91224L12.6187 4.91183L8.43665 2.52208L8.43504 2.52115C8.31667 2.45281 8.18239 2.41683 8.0457 2.41683Z" fill="#636363"/>
<path fill-rule="evenodd" clip-rule="evenodd" d="M2.46752 4.75473C2.58275 4.55554 2.83764 4.48747 3.03683 4.6027L8.04586 7.50025L13.0549 4.6027C13.2541 4.48747 13.509 4.55554 13.6242 4.75473C13.7394 4.95392 13.6713 5.20881 13.4722 5.32404L8.25449 8.34227C8.12542 8.41694 7.96629 8.41694 7.83722 8.34227L2.61956 5.32404C2.42037 5.20881 2.3523 4.95392 2.46752 4.75473Z" fill="#636363"/>
<path fill-rule="evenodd" clip-rule="evenodd" d="M8.04557 7.55896C8.27569 7.55896 8.46224 7.74551 8.46224 7.97563V14.0001C8.46224 14.2303 8.27569 14.4168 8.04557 14.4168C7.81545 14.4168 7.62891 14.2303 7.62891 14.0001V7.97563C7.62891 7.74551 7.81545 7.55896 8.04557 7.55896Z" fill="#636363"/>
</svg>
