<svg width="16" height="16" viewBox="0 0 16 16" fill="none" xmlns="http://www.w3.org/2000/svg">
<path d="M3.53301 8.00004C3.74428 8.17593 3.91488 8.39557 4.03301 8.64379C4.33301 9.26254 4.33301 10.0188 4.33301 10.75C4.33301 12.2688 4.39551 13 5.83301 13C5.96562 13 6.09279 13.0527 6.18656 13.1465C6.28033 13.2403 6.33301 13.3674 6.33301 13.5C6.33301 13.6326 6.28033 13.7598 6.18656 13.8536C6.09279 13.9474 5.96562 14 5.83301 14C4.73926 14 4.00176 13.6188 3.63301 12.8563C3.33301 12.2375 3.33301 11.4813 3.33301 10.75C3.33301 9.23129 3.27051 8.50004 1.83301 8.50004C1.7004 8.50004 1.57322 8.44737 1.47945 8.3536C1.38569 8.25983 1.33301 8.13265 1.33301 8.00004C1.33301 7.86744 1.38569 7.74026 1.47945 7.64649C1.57322 7.55272 1.7004 7.50004 1.83301 7.50004C3.27051 7.50004 3.33301 6.76879 3.33301 5.25004C3.33301 4.51879 3.33301 3.76254 3.63301 3.14379C4.00176 2.38129 4.73926 2.00004 5.83301 2.00004C5.96562 2.00004 6.09279 2.05272 6.18656 2.14649C6.28033 2.24026 6.33301 2.36743 6.33301 2.50004C6.33301 2.63265 6.28033 2.75983 6.18656 2.8536C6.09279 2.94736 5.96562 3.00004 5.83301 3.00004C4.39551 3.00004 4.33301 3.73129 4.33301 5.25004C4.33301 5.98129 4.33301 6.73754 4.03301 7.35629C3.91488 7.60452 3.74428 7.82416 3.53301 8.00004ZM13.833 7.5C12.3955 7.5 12.333 6.76875 12.333 5.25C12.333 4.51875 12.333 3.7625 12.033 3.14375C11.6643 2.38125 10.9268 2 9.83301 2C9.7004 2 9.57322 2.05268 9.47945 2.14645C9.38569 2.24021 9.33301 2.36739 9.33301 2.5C9.33301 2.63261 9.38569 2.75979 9.47945 2.85355C9.57322 2.94732 9.7004 3 9.83301 3C11.2705 3 11.333 3.73125 11.333 5.25C11.333 5.98125 11.333 6.7375 11.633 7.35625C11.7511 7.60448 11.9217 7.82412 12.133 8C11.9217 8.17589 11.7511 8.39552 11.633 8.64375C11.333 9.2625 11.333 10.0188 11.333 10.75C11.333 12.2688 11.2705 13 9.83301 13C9.7004 13 9.57322 13.0527 9.47945 13.1464C9.38569 13.2402 9.33301 13.3674 9.33301 13.5C9.33301 13.6326 9.38569 13.7598 9.47945 13.8536C9.57322 13.9473 9.7004 14 9.83301 14C10.9268 14 11.6643 13.6187 12.033 12.8562C12.333 12.2375 12.333 11.4812 12.333 10.75C12.333 9.23125 12.3955 8.5 13.833 8.5C13.9656 8.5 14.0928 8.44732 14.1866 8.35355C14.2803 8.25979 14.333 8.13261 14.333 8C14.333 7.86739 14.2803 7.74022 14.1866 7.64645C14.0928 7.55268 13.9656 7.5 13.833 7.5Z" fill="currentColor"/>
</svg>
