<svg width="16" height="16" viewBox="0 0 16 16" fill="none" xmlns="http://www.w3.org/2000/svg">
<path d="M10.6866 1.64645C10.4913 1.45118 10.1747 1.45118 9.97945 1.64645L7.97945 3.64645C7.78419 3.84171 7.78419 4.15829 7.97945 4.35355C8.17472 4.54882 8.4913 4.54882 8.68656 4.35355L9.83301 3.20711V12.0181L6.96339 9.93114C6.62819 9.67973 6.3914 9.50077 6.2173 9.35437C6.04166 9.20667 5.96032 9.11672 5.91685 9.05093C5.84879 8.94792 5.83301 8.86535 5.83301 8.33335V6.87379L6.97945 8.02024C7.17472 8.2155 7.4913 8.2155 7.68656 8.02024C7.88182 7.82498 7.88182 7.5084 7.68656 7.31313L5.68656 5.31313C5.4913 5.11787 5.17472 5.11787 4.97945 5.31313L2.97945 7.31313C2.78419 7.5084 2.78419 7.82498 2.97945 8.02024C3.17472 8.2155 3.4913 8.2155 3.68656 8.02024L4.83301 6.87379V8.33335L4.83292 8.40512C4.83212 8.82773 4.83138 9.22207 5.0825 9.60217C5.2057 9.78864 5.37436 9.9521 5.57371 10.1197C5.7741 10.2882 6.03641 10.486 6.36631 10.7334L9.83301 13.2546V14C9.83301 14.2761 10.0569 14.5 10.333 14.5C10.6091 14.5 10.833 14.2761 10.833 14V13.0064C10.8331 13.0024 10.8331 12.9984 10.833 12.9945V3.20711L11.9795 4.35355C12.1747 4.54882 12.4913 4.54882 12.6866 4.35355C12.8818 4.15829 12.8818 3.84171 12.6866 3.64645L10.6866 1.64645Z" fill="#464646"/>
</svg>
