<svg width="16" height="16" viewBox="0 0 16 16" fill="none" xmlns="http://www.w3.org/2000/svg">
  <path d="M8 1C6.61553 1 5.26216 1.41054 4.11101 2.17971C2.95987 2.94888 2.06266 4.04213 1.53285 5.32122C1.00303 6.6003 0.86441 8.00776 1.13451 9.36563C1.4046 10.7235 2.07129 11.9708 3.05026 12.9497C4.02922 13.9287 5.2765 14.5954 6.63437 14.8655C7.99224 15.1356 9.3997 14.997 10.6788 14.4672C11.9579 13.9373 13.0511 13.0401 13.8203 11.889C14.5895 10.7378 15 9.38447 15 8C14.998 6.14409 14.2599 4.36475 12.9476 3.05242C11.6353 1.74009 9.85592 1.00196 8 1ZM11.0733 6.76558L7.30404 10.5348C7.25403 10.5849 7.19465 10.6246 7.12928 10.6517C7.06391 10.6788 6.99384 10.6927 6.92308 10.6927C6.85232 10.6927 6.78225 10.6788 6.71688 10.6517C6.65151 10.6246 6.59213 10.5849 6.54212 10.5348L4.92673 8.91942C4.8257 8.81838 4.76893 8.68135 4.76893 8.53846C4.76893 8.39557 4.8257 8.25854 4.92673 8.1575C5.02777 8.05646 5.16481 7.9997 5.30769 7.9997C5.45058 7.9997 5.58762 8.05646 5.68866 8.1575L6.92308 9.3926L10.3113 6.00365C10.3614 5.95362 10.4208 5.91394 10.4861 5.88686C10.5515 5.85979 10.6216 5.84585 10.6923 5.84585C10.7631 5.84585 10.8331 5.85979 10.8985 5.88686C10.9639 5.91394 11.0232 5.95362 11.0733 6.00365C11.1233 6.05368 11.163 6.11307 11.1901 6.17844C11.2171 6.2438 11.2311 6.31386 11.2311 6.38461C11.2311 6.45537 11.2171 6.52542 11.1901 6.59079C11.163 6.65616 11.1233 6.71555 11.0733 6.76558Z" fill="#76CC9D"/>
</svg>
