<svg width="16" height="16" viewBox="0 0 16 16" fill="none" xmlns="http://www.w3.org/2000/svg">
<path d="M9.21811 2.52637C8.3436 2.32711 7.44242 2.42789 6.81931 2.62506L6.67456 2.67497C5.68674 3.0332 4.91759 3.7808 4.55173 4.71325L4.4017 5.11956L4.02562 5.17485C2.56223 5.40685 1.42701 6.69256 1.42434 8.26391L1.4273 8.39769C1.49093 10.0344 2.78454 11.3321 4.37186 11.3994H5.51767C5.80581 11.3994 6.0394 11.633 6.0394 11.9212C6.0394 12.2093 5.80581 12.4429 5.51767 12.4429H4.35102L4.34081 12.4425C2.19204 12.3583 0.466376 10.6088 0.384411 8.43307L0.384169 8.42495L0.380859 8.27523V8.26946C0.380859 6.26248 1.77718 4.58793 3.64085 4.18565C4.14058 3.03425 5.11077 2.13074 6.32331 1.69238L6.33062 1.6898L6.49115 1.63444L6.4971 1.63255C7.27061 1.38638 8.36521 1.26181 9.44993 1.50897C10.5495 1.75952 11.6497 2.39704 12.3587 3.67316C12.4986 3.92505 12.4079 4.24268 12.156 4.38262C11.9041 4.52256 11.5865 4.4318 11.4465 4.17992C10.9055 3.20603 10.0805 2.72287 9.21811 2.52637Z" fill="currentColor"/>
<path fill-rule="evenodd" clip-rule="evenodd" d="M9.0606 9.75578C9.0606 8.82273 9.81699 8.06634 10.75 8.06634C11.6831 8.06634 12.4395 8.82273 12.4395 9.75578C12.4395 10.6888 11.6831 11.4452 10.75 11.4452C9.81699 11.4452 9.0606 10.6888 9.0606 9.75578ZM10.75 9.06013C10.3658 9.06013 10.0544 9.37159 10.0544 9.75578C10.0544 10.14 10.3658 10.4514 10.75 10.4514C11.1342 10.4514 11.4457 10.14 11.4457 9.75578C11.4457 9.37159 11.1342 9.06013 10.75 9.06013Z" fill="currentColor"/>
<path fill-rule="evenodd" clip-rule="evenodd" d="M9.83445 5.26463C10.0767 5.02234 10.4053 4.88623 10.748 4.88623C11.0906 4.88623 11.4192 5.02234 11.6615 5.26463C11.9038 5.50691 12.0399 5.83552 12.0399 6.17816V6.21258C12.0402 6.24337 12.0493 6.27343 12.0663 6.29911C12.0835 6.32497 12.1078 6.34525 12.1363 6.35747L12.1412 6.35956C12.1702 6.37239 12.2025 6.37625 12.2337 6.37058C12.2644 6.36502 12.2927 6.35057 12.3152 6.32905L12.3363 6.30799C12.4563 6.18796 12.5989 6.09254 12.7556 6.02756C12.9125 5.96255 13.0806 5.92908 13.2503 5.92908C13.4201 5.92908 13.5882 5.96255 13.7451 6.02756C13.9017 6.09251 14.0441 6.18766 14.164 6.3076C14.2841 6.42758 14.3794 6.57007 14.4444 6.7269C14.5094 6.88374 14.5429 7.05185 14.5429 7.22163C14.5429 7.39141 14.5094 7.55953 14.4444 7.71636C14.3794 7.8732 14.2841 8.01569 14.164 8.13567L14.1429 8.15673C14.1214 8.17924 14.107 8.20758 14.1014 8.23825C14.0957 8.26951 14.0996 8.30175 14.1124 8.33082C14.1233 8.35555 14.1322 8.38107 14.1389 8.40711C14.1486 8.41873 14.1601 8.42897 14.1729 8.43744C14.1985 8.45444 14.2286 8.46362 14.2594 8.46387H14.3256C14.6683 8.46387 14.9969 8.59998 15.2392 8.84227C15.4814 9.08455 15.6175 9.41316 15.6175 9.7558C15.6175 10.0984 15.4814 10.427 15.2392 10.6693C14.9969 10.9116 14.6683 11.0477 14.3256 11.0477H14.2912C14.2604 11.048 14.2303 11.0571 14.2047 11.0742C14.1788 11.0913 14.1585 11.1156 14.1463 11.1441L14.1442 11.149C14.1314 11.178 14.1275 11.2103 14.1332 11.2415C14.1388 11.2722 14.1532 11.3005 14.1747 11.3231L14.1958 11.3441C14.3159 11.4641 14.4112 11.6066 14.4762 11.7634C14.5412 11.9203 14.5747 12.0884 14.5747 12.2582C14.5747 12.4279 14.5412 12.5961 14.4762 12.7529C14.4112 12.9097 14.3163 13.0518 14.1962 13.1718C14.0762 13.2919 13.9337 13.3872 13.7769 13.4522C13.62 13.5172 13.4519 13.5507 13.2821 13.5507C13.1124 13.5507 12.9443 13.5172 12.7874 13.4522C12.6307 13.3872 12.4882 13.292 12.3683 13.172L12.347 13.1507C12.3245 13.1292 12.2962 13.1148 12.2655 13.1092C12.2343 13.1035 12.202 13.1074 12.173 13.1202L12.1681 13.1224C12.1396 13.1346 12.1153 13.1548 12.0981 13.1807C12.0811 13.2064 12.072 13.2364 12.0717 13.2672V13.3334C12.0717 13.6761 11.9356 14.0047 11.6933 14.247C11.451 14.4892 11.1224 14.6254 10.7798 14.6254C10.4371 14.6254 10.1085 14.4892 9.86626 14.247C9.62397 14.0047 9.48786 13.6761 9.48786 13.3334V13.3054C9.48641 13.2749 9.47618 13.2454 9.45836 13.2205C9.4398 13.1945 9.41386 13.1748 9.38392 13.1638C9.37409 13.1602 9.36439 13.1562 9.35481 13.152C9.32574 13.1392 9.2935 13.1353 9.26224 13.141C9.23157 13.1466 9.20323 13.161 9.18073 13.1825L9.15966 13.2036C9.03967 13.3237 8.89719 13.419 8.74035 13.484C8.58352 13.549 8.4154 13.5825 8.24562 13.5825C8.07584 13.5825 7.90773 13.549 7.75089 13.484C7.59406 13.419 7.45157 13.3237 7.33159 13.2036C7.21165 13.0837 7.1165 12.9414 7.05155 12.7847C6.98654 12.6279 6.95307 12.4597 6.95307 12.29C6.95307 12.1202 6.98654 11.9521 7.05155 11.7952C7.11653 11.6385 7.21175 11.4961 7.33178 11.3761L7.35303 11.3549C7.37456 11.3324 7.389 11.304 7.39457 11.2733C7.40023 11.2421 7.39641 11.2098 7.38358 11.1808L7.38143 11.1759C7.36921 11.1474 7.34896 11.1231 7.3231 11.106C7.29742 11.0889 7.26736 11.0798 7.23657 11.0795H7.17034C6.8277 11.0795 6.4991 10.9434 6.25681 10.7011C6.01453 10.4588 5.87842 10.1302 5.87842 9.7876C5.87842 9.44496 6.01453 9.11635 6.25681 8.87407C6.4991 8.63179 6.8277 8.49567 7.17034 8.49567H7.19833C7.22887 8.49422 7.25837 8.48399 7.28328 8.46618C7.30923 8.44761 7.329 8.42168 7.34001 8.39173C7.34363 8.38191 7.34755 8.3722 7.35178 8.36262C7.36461 8.33355 7.36843 8.30131 7.36276 8.27005C7.3572 8.23938 7.34276 8.21104 7.32123 8.18853L7.30018 8.16747C7.18015 8.04753 7.08473 7.90492 7.01975 7.74817C6.95474 7.59133 6.92127 7.42321 6.92127 7.25344C6.92127 7.08366 6.95474 6.91554 7.01975 6.75871C7.08473 6.60195 7.17995 6.45954 7.29998 6.33959C7.41992 6.21957 7.56234 6.12434 7.71909 6.05936C7.87593 5.99435 8.04404 5.96088 8.21382 5.96088C8.3836 5.96088 8.55171 5.99435 8.70855 6.05936C8.8653 6.12434 9.00772 6.21957 9.12766 6.33959L9.14892 6.36085C9.17143 6.38237 9.19977 6.39682 9.23044 6.40238C9.2617 6.40805 9.29394 6.40422 9.32301 6.39139C9.34774 6.38048 9.37326 6.37163 9.3993 6.3649C9.41092 6.35513 9.42116 6.34371 9.42963 6.33091C9.44663 6.30524 9.45581 6.27519 9.45606 6.24441V6.17816C9.45606 5.83552 9.59217 5.50691 9.83445 5.26463ZM10.748 5.88002C10.6689 5.88002 10.5931 5.91143 10.5372 5.96734C10.4813 6.02325 10.4498 6.09909 10.4498 6.17816V6.24772C10.4489 6.47254 10.3823 6.69219 10.2582 6.87963C10.1341 7.06708 9.95782 7.21413 9.75118 7.3027C9.71244 7.3193 9.67185 7.33087 9.63038 7.33719C9.44529 7.40022 9.24662 7.41531 9.05314 7.38022C8.82649 7.33913 8.61736 7.23108 8.4527 7.07001L8.44878 7.06618L8.42495 7.04231C8.39726 7.01459 8.36418 6.9924 8.32799 6.9774C8.2918 6.9624 8.253 6.95467 8.21382 6.95467C8.17464 6.95467 8.13585 6.9624 8.09965 6.9774C8.06346 6.9924 8.03019 7.01478 8.0025 7.0425C7.97478 7.07019 7.95279 7.10307 7.93779 7.13927C7.92278 7.17546 7.91506 7.21426 7.91506 7.25344C7.91506 7.29261 7.92278 7.33141 7.93779 7.3676C7.95279 7.4038 7.97478 7.43668 8.0025 7.46437L8.03042 7.49229C8.19149 7.65695 8.29951 7.86611 8.34061 8.09275C8.38077 8.31424 8.35519 8.54252 8.2672 8.74947C8.18636 8.96035 8.04531 9.14297 7.86142 9.27449C7.67327 9.40906 7.44899 9.48392 7.21774 9.48932L7.20612 9.48946H7.17034C7.09127 9.48946 7.01544 9.52087 6.95953 9.57678C6.90362 9.63269 6.87221 9.70853 6.87221 9.7876C6.87221 9.86667 6.90362 9.9425 6.95953 9.99841C7.01544 10.0543 7.09127 10.0857 7.17034 10.0857H7.2399C7.46472 10.0866 7.68438 10.1533 7.87182 10.2774C8.05853 10.401 8.20517 10.5764 8.29384 10.782C8.38598 10.9921 8.41335 11.2249 8.37241 11.4506C8.33132 11.6773 8.22327 11.8864 8.0622 12.0511L8.05837 12.055L8.03449 12.0788C8.00678 12.1065 7.98459 12.1396 7.96959 12.1758C7.95458 12.212 7.94686 12.2508 7.94686 12.29C7.94686 12.3291 7.95458 12.3679 7.96959 12.4041C7.98459 12.4403 8.00697 12.4736 8.03469 12.5013C8.06238 12.529 8.09526 12.551 8.13145 12.566C8.16765 12.581 8.20644 12.5887 8.24562 12.5887C8.2848 12.5887 8.3236 12.581 8.35979 12.566C8.39599 12.551 8.42887 12.529 8.45655 12.5013L8.48448 12.4734C8.64914 12.3123 8.85829 12.2043 9.08494 12.1632C9.30642 12.123 9.53471 12.1486 9.74165 12.2366C9.95254 12.3174 10.1352 12.4585 10.2667 12.6424C10.4012 12.8305 10.4761 13.0548 10.4815 13.286L10.4816 13.2977V13.3334C10.4816 13.4125 10.5131 13.4883 10.569 13.5442C10.6249 13.6002 10.7007 13.6316 10.7798 13.6316C10.8589 13.6316 10.9347 13.6002 10.9906 13.5442C11.0465 13.4883 11.0779 13.4125 11.0779 13.3334V13.2659L11.0779 13.2639C11.0788 13.0391 11.1454 12.8194 11.2696 12.632C11.3932 12.4453 11.5686 12.2986 11.7741 12.2099C11.9842 12.1178 12.2171 12.0904 12.4428 12.1314C12.6695 12.1725 12.8786 12.2805 13.0433 12.4416L13.0472 12.4454L13.071 12.4693C13.0987 12.497 13.1318 12.5192 13.168 12.5342C13.2042 12.5492 13.243 12.5569 13.2821 12.5569C13.3213 12.5569 13.3601 12.5492 13.3963 12.5342C13.4325 12.5192 13.4658 12.4968 13.4935 12.4691C13.5212 12.4414 13.5432 12.4085 13.5582 12.3723C13.5732 12.3361 13.5809 12.2973 13.5809 12.2582C13.5809 12.219 13.5732 12.1802 13.5582 12.144C13.5432 12.1078 13.5212 12.0749 13.4935 12.0472L13.4655 12.0193C13.3045 11.8546 13.1965 11.6455 13.1554 11.4188C13.1144 11.1931 13.1418 10.9602 13.2339 10.7502C13.3226 10.5446 13.4692 10.3692 13.6559 10.2456C13.8434 10.1214 14.063 10.0548 14.2879 10.0539L14.2898 10.0539L14.3256 10.0539C14.4047 10.0539 14.4805 10.0225 14.5364 9.96661C14.5923 9.9107 14.6238 9.83487 14.6238 9.7558C14.6238 9.67673 14.5923 9.60089 14.5364 9.54498C14.4805 9.48907 14.4047 9.45766 14.3256 9.45766H14.258L14.2561 9.45765C14.0312 9.45676 13.8116 9.39014 13.6241 9.26601C13.4367 9.14187 13.2896 8.96564 13.2011 8.75899C13.1845 8.72026 13.1729 8.67966 13.1666 8.6382C13.1036 8.4531 13.0885 8.25443 13.1236 8.06095C13.1646 7.83431 13.2727 7.62517 13.4338 7.46051L13.4376 7.45659L13.4615 7.43276C13.4892 7.40507 13.5114 7.372 13.5264 7.3358C13.5414 7.29961 13.5491 7.26081 13.5491 7.22163C13.5491 7.18246 13.5414 7.14366 13.5264 7.10747C13.5114 7.07127 13.489 7.038 13.4613 7.01031C13.4336 6.98259 13.4007 6.9606 13.3645 6.9456C13.3283 6.93059 13.2895 6.92287 13.2503 6.92287C13.2112 6.92287 13.1724 6.93059 13.1362 6.9456C13.1 6.9606 13.0671 6.98259 13.0394 7.01031L13.0115 7.03823C12.8468 7.1993 12.6377 7.30733 12.411 7.34842C12.1853 7.38936 11.9525 7.36199 11.7424 7.26985C11.5368 7.18118 11.3614 7.03454 11.2378 6.84783C11.1136 6.66039 11.047 6.44073 11.0461 6.21591L11.0461 6.21393V6.17816C11.0461 6.09909 11.0147 6.02325 10.9588 5.96734C10.9029 5.91143 10.8271 5.88002 10.748 5.88002Z" fill="currentColor"/>
</svg>
