<svg width="16" height="16" viewBox="0 0 16 16" fill="none" xmlns="http://www.w3.org/2000/svg">
<path d="M8.4875 0.956223L10.3606 2.00985C9.85249 2.04275 9.36652 2.15697 8.91559 2.33963L8 1.82497L3.025 4.62497L6.01506 6.289C6.00508 6.41357 6 6.53951 6 6.66664C6 6.93847 6.02324 7.20487 6.06785 7.46397L2.5 5.47497V11.0812L7.50625 13.9L7.53987 10.1309C7.83863 10.4008 8.17247 10.6325 8.53371 10.8184L8.50626 13.8937L13.5 11.0812V10.375C13.885 10.0805 14.2228 9.72727 14.5 9.32881V11.0812C14.4997 11.2594 14.4521 11.4343 14.362 11.588C14.272 11.7417 14.1427 11.8688 13.9875 11.9562L8.4875 15.05C8.35348 15.1253 8.20362 15.1682 8.05 15.175H7.9625C7.80492 15.1683 7.65097 15.1255 7.5125 15.05L2.0125 11.9562C1.85727 11.8688 1.72802 11.7417 1.63798 11.588C1.54793 11.4343 1.50032 11.2594 1.5 11.0812V4.91872C1.49949 4.7494 1.54485 4.58309 1.63125 4.43747V4.42497L1.63567 4.42314L1.6375 4.41872C1.72784 4.26492 1.85721 4.13771 2.0125 4.04997L7.5125 0.956223C7.66152 0.873024 7.82934 0.829346 8 0.829346C8.17067 0.829346 8.33849 0.873024 8.4875 0.956223Z" fill="currentColor"/>
<path fill-rule="evenodd" clip-rule="evenodd" d="M9.27924 6.66664C9.27924 5.9002 9.90056 5.27888 10.667 5.27888C11.4334 5.27888 12.0547 5.9002 12.0547 6.66664C12.0547 7.43308 11.4334 8.0544 10.667 8.0544C9.90056 8.0544 9.27924 7.43308 9.27924 6.66664ZM10.667 6.09521C10.3514 6.09521 10.0956 6.35105 10.0956 6.66664C10.0956 6.98223 10.3514 7.23807 10.667 7.23807C10.9826 7.23807 11.2384 6.98223 11.2384 6.66664C11.2384 6.35105 10.9826 6.09521 10.667 6.09521Z" fill="currentColor"/>
<path fill-rule="evenodd" clip-rule="evenodd" d="M9.91627 2.97747C10.1153 2.77845 10.3852 2.66664 10.6667 2.66664C10.9481 2.66664 11.218 2.77845 11.4171 2.97747C11.6161 3.17648 11.7279 3.44641 11.7279 3.72787V3.75615C11.7281 3.78144 11.7356 3.80613 11.7496 3.82722C11.7637 3.84846 11.7836 3.86512 11.807 3.87516L11.8111 3.87688C11.8349 3.88742 11.8614 3.89058 11.8871 3.88593C11.9123 3.88136 11.9356 3.86949 11.9541 3.85181L11.9714 3.83451C12.0699 3.73592 12.187 3.65754 12.3158 3.60416C12.4446 3.55076 12.5827 3.52327 12.7222 3.52327C12.8616 3.52327 12.9997 3.55076 13.1286 3.60416C13.2573 3.65751 13.3742 3.73567 13.4727 3.83419C13.5713 3.93275 13.6496 4.04979 13.703 4.17862C13.7564 4.30745 13.7839 4.44555 13.7839 4.58501C13.7839 4.72447 13.7564 4.86256 13.703 4.99139C13.6496 5.12023 13.5713 5.23727 13.4727 5.33582L13.4554 5.35312C13.4377 5.37161 13.4258 5.39489 13.4213 5.42009C13.4166 5.44576 13.4197 5.47225 13.4303 5.49612C13.4392 5.51644 13.4465 5.5374 13.452 5.55879C13.4601 5.56834 13.4695 5.57675 13.48 5.58371C13.5011 5.59767 13.5257 5.60521 13.551 5.60542H13.6054C13.8869 5.60542 14.1568 5.71722 14.3558 5.91624C14.5549 6.11526 14.6667 6.38519 14.6667 6.66664C14.6667 6.9481 14.5549 7.21802 14.3558 7.41704C14.1568 7.61606 13.8869 7.72787 13.6054 7.72787H13.5772C13.5519 7.72807 13.5272 7.73561 13.5061 7.74958C13.4848 7.76364 13.4682 7.78361 13.4582 7.80702L13.4564 7.81105C13.4459 7.83492 13.4427 7.8614 13.4474 7.88707C13.452 7.91226 13.4638 7.93555 13.4815 7.95403L13.4988 7.97134C13.5975 8.0699 13.6757 8.18694 13.7291 8.31577C13.7825 8.4446 13.81 8.58269 13.81 8.72215C13.81 8.86161 13.7825 8.99971 13.7291 9.12854C13.6758 9.2573 13.5975 9.37428 13.499 9.47281C13.4004 9.5714 13.2834 9.64962 13.1547 9.703C13.0259 9.7564 12.8878 9.78389 12.7483 9.78389C12.6088 9.78389 12.4707 9.7564 12.3419 9.703C12.2132 9.64962 12.0962 9.5714 11.9976 9.47281L11.9802 9.45534C11.9617 9.43767 11.9384 9.4258 11.9132 9.42124C11.8875 9.41658 11.8611 9.41972 11.8372 9.43026L11.8332 9.43203C11.8098 9.44206 11.7898 9.4587 11.7757 9.47994C11.7618 9.50103 11.7542 9.52572 11.754 9.55101V9.60542C11.754 9.88687 11.6422 10.1568 11.4432 10.3558C11.2442 10.5548 10.9742 10.6666 10.6928 10.6666C10.4113 10.6666 10.1414 10.5548 9.94239 10.3558C9.74337 10.1568 9.63157 9.88687 9.63157 9.60542V9.58243C9.63037 9.55734 9.62197 9.53311 9.60734 9.51264C9.59209 9.49133 9.57078 9.47509 9.54618 9.46604C9.53811 9.46308 9.53014 9.45985 9.52227 9.45638C9.4984 9.44584 9.47191 9.4427 9.44623 9.44736C9.42104 9.45192 9.39776 9.46379 9.37928 9.48147L9.36197 9.49877C9.26341 9.59744 9.14637 9.67571 9.01754 9.72912C8.88871 9.78252 8.75062 9.81001 8.61116 9.81001C8.47169 9.81001 8.3336 9.78252 8.20477 9.72912C8.07594 9.67571 7.9589 9.59744 7.86034 9.49877C7.76182 9.40028 7.68366 9.28335 7.63031 9.15466C7.57691 9.02583 7.54942 8.88774 7.54942 8.74827C7.54942 8.60881 7.57691 8.47072 7.63031 8.34189C7.68369 8.21313 7.76191 8.09614 7.8605 7.99762L7.87796 7.98016C7.89564 7.96167 7.90751 7.93839 7.91207 7.9132C7.91673 7.88752 7.91359 7.86103 7.90305 7.83716L7.90128 7.83315C7.89125 7.80974 7.87461 7.78976 7.85337 7.7757C7.83228 7.76173 7.80758 7.75419 7.78229 7.75399H7.72789C7.44644 7.75399 7.17651 7.64218 6.97749 7.44316C6.77847 7.24414 6.66667 6.97422 6.66667 6.69276C6.66667 6.41131 6.77847 6.14138 6.97749 5.94236C7.17651 5.74335 7.44644 5.63154 7.72789 5.63154H7.75088C7.77597 5.63035 7.8002 5.62195 7.82066 5.60731C7.84198 5.59206 7.85822 5.57076 7.86726 5.54616C7.87023 5.53809 7.87346 5.53011 7.87693 5.52225C7.88746 5.49837 7.89061 5.47189 7.88595 5.44621C7.88138 5.42102 7.86951 5.39773 7.85184 5.37925L7.83454 5.36195C7.73595 5.26342 7.65757 5.14628 7.60419 5.01752C7.55078 4.88869 7.5233 4.75059 7.5233 4.61113C7.5233 4.47167 7.55078 4.33358 7.60419 4.20475C7.65757 4.07599 7.73579 3.959 7.83438 3.86048C7.9329 3.76188 8.04989 3.68366 8.17865 3.63029C8.30748 3.57688 8.44557 3.54939 8.58503 3.54939C8.7245 3.54939 8.86259 3.57688 8.99142 3.63029C9.12018 3.68366 9.23716 3.76188 9.33569 3.86048L9.35315 3.87793C9.37164 3.89561 9.39492 3.90748 9.42011 3.91205C9.44579 3.9167 9.47228 3.91356 9.49615 3.90302C9.51647 3.89406 9.53743 3.88679 9.55882 3.88126C9.56837 3.87324 9.57677 3.86385 9.58373 3.85334C9.5977 3.83226 9.60524 3.80757 9.60544 3.78229V3.72787C9.60544 3.44641 9.71725 3.17648 9.91627 2.97747ZM10.6667 3.48297C10.6017 3.48297 10.5394 3.50877 10.4935 3.5547C10.4476 3.60062 10.4218 3.66291 10.4218 3.72787V3.785C10.421 3.96968 10.3663 4.15011 10.2643 4.30408C10.1624 4.45805 10.0176 4.57885 9.84786 4.6516C9.81604 4.66523 9.7827 4.67473 9.74864 4.67993C9.59659 4.7317 9.4334 4.7441 9.27447 4.71528C9.0883 4.68152 8.91651 4.59277 8.78125 4.46046L8.77803 4.45731L8.75846 4.43771C8.73572 4.41494 8.70855 4.39671 8.67882 4.38439C8.64909 4.37206 8.61722 4.36572 8.58503 4.36572C8.55285 4.36572 8.52098 4.37206 8.49125 4.38439C8.46152 4.39671 8.43451 4.41478 8.41177 4.43754C8.389 4.46029 8.37061 4.48762 8.35829 4.51735C8.34597 4.54708 8.33962 4.57895 8.33962 4.61113C8.33962 4.64331 8.34597 4.67518 8.35829 4.70491C8.37061 4.73464 8.38868 4.76165 8.41145 4.7844L8.43438 4.80733C8.56669 4.94259 8.65543 5.1144 8.68918 5.30057C8.72217 5.4825 8.70116 5.67002 8.62888 5.84001C8.56248 6.01324 8.44661 6.16325 8.29556 6.27129C8.14101 6.38182 7.95678 6.44331 7.76682 6.44775L7.75728 6.44787H7.72789C7.66294 6.44787 7.60065 6.47367 7.55472 6.5196C7.50879 6.56552 7.48299 6.62781 7.48299 6.69276C7.48299 6.75771 7.50879 6.82 7.55472 6.86593C7.60065 6.91186 7.66294 6.93766 7.72789 6.93766H7.78503C7.9697 6.9384 8.15013 6.99312 8.3041 7.09509C8.45747 7.19666 8.57793 7.34069 8.65077 7.50958C8.72645 7.68215 8.74893 7.87339 8.7153 8.05884C8.68155 8.24501 8.59279 8.4168 8.46049 8.55206L8.45734 8.55527L8.43773 8.57485C8.41496 8.59759 8.39674 8.62476 8.38441 8.65449C8.37209 8.68422 8.36575 8.71609 8.36575 8.74827C8.36575 8.78046 8.37209 8.81233 8.38441 8.84206C8.39674 8.87179 8.4148 8.8988 8.43757 8.92154C8.46031 8.94431 8.48764 8.96269 8.51738 8.97502C8.54711 8.98734 8.57897 8.99369 8.61116 8.99369C8.64334 8.99369 8.67521 8.98734 8.70494 8.97502C8.73467 8.96269 8.76168 8.94463 8.78442 8.92186L8.80736 8.89892C8.94261 8.76662 9.11442 8.67788 9.30059 8.64413C9.48253 8.61114 9.67004 8.63215 9.84003 8.70442C10.0133 8.77083 10.1633 8.8867 10.2713 9.03775C10.3818 9.1923 10.4433 9.37653 10.4478 9.56648L10.4479 9.57603V9.60542C10.4479 9.67037 10.4737 9.73266 10.5196 9.77859C10.5655 9.82451 10.6278 9.85032 10.6928 9.85032C10.7577 9.85032 10.82 9.82451 10.866 9.77859C10.9119 9.73266 10.9377 9.67037 10.9377 9.60542V9.54991L10.9377 9.54828C10.9384 9.3636 10.9931 9.18318 11.0951 9.0292C11.1967 8.87584 11.3407 8.75539 11.5096 8.68255C11.6822 8.60686 11.8734 8.58438 12.0589 8.618C12.245 8.65176 12.4168 8.74051 12.5521 8.87282L12.5553 8.87597L12.5749 8.89558C12.5976 8.91835 12.6248 8.93657 12.6545 8.9489C12.6842 8.96122 12.7161 8.96756 12.7483 8.96756C12.7805 8.96756 12.8124 8.96122 12.8421 8.9489C12.8718 8.93657 12.8988 8.91851 12.9216 8.89574C12.9443 8.87299 12.9627 8.84566 12.975 8.81593C12.9874 8.7862 12.9937 8.75433 12.9937 8.72215C12.9937 8.68997 12.9874 8.6581 12.975 8.62837C12.9627 8.59864 12.9447 8.57163 12.9219 8.54889L12.899 8.52595C12.7666 8.39069 12.6779 8.21889 12.6442 8.03272C12.6105 7.84726 12.633 7.65601 12.7087 7.48343C12.7815 7.31456 12.902 7.17053 13.0554 7.06897C13.2093 6.967 13.3898 6.91228 13.5744 6.91154L13.5761 6.91154L13.6054 6.91154C13.6704 6.91154 13.7327 6.88574 13.7786 6.83981C13.8245 6.79388 13.8503 6.73159 13.8503 6.66664C13.8503 6.60169 13.8245 6.5394 13.7786 6.49347C13.7327 6.44755 13.6704 6.42174 13.6054 6.42174H13.5499L13.5483 6.42174C13.3636 6.421 13.1832 6.36628 13.0292 6.26431C12.8753 6.16235 12.7545 6.01758 12.6817 5.84784C12.6681 5.81602 12.6586 5.78267 12.6534 5.74861C12.6016 5.59657 12.5892 5.43338 12.618 5.27445C12.6518 5.08827 12.7405 4.91648 12.8728 4.78123L12.876 4.77801L12.8956 4.75844C12.9184 4.73569 12.9366 4.70852 12.9489 4.67879C12.9612 4.64906 12.9676 4.61719 12.9676 4.58501C12.9676 4.55283 12.9612 4.52096 12.9489 4.49123C12.9366 4.4615 12.9185 4.43449 12.8958 4.41174C12.873 4.38897 12.8457 4.37059 12.816 4.35826C12.7862 4.34594 12.7544 4.3396 12.7222 4.3396C12.69 4.3396 12.6581 4.34594 12.6284 4.35826C12.5987 4.37059 12.5717 4.38865 12.5489 4.41142L12.526 4.43436C12.3907 4.56666 12.2189 4.6554 12.0327 4.68916C11.8473 4.72278 11.6561 4.7003 11.4835 4.62462C11.3146 4.55178 11.1706 4.43133 11.069 4.27796C10.967 4.12398 10.9123 3.94356 10.9116 3.75888L10.9116 3.75725V3.72787C10.9116 3.66291 10.8858 3.60062 10.8398 3.5547C10.7939 3.50877 10.7316 3.48297 10.6667 3.48297Z" fill="currentColor"/>
</svg>
