<svg width="16" height="16" viewBox="0 0 16 16" fill="none" xmlns="http://www.w3.org/2000/svg">
<path fill-rule="evenodd" clip-rule="evenodd" d="M1.5 2C1.5 1.72386 1.72386 1.5 2 1.5H6.66667C6.94281 1.5 7.16667 1.72386 7.16667 2V8C7.16667 8.27614 6.94281 8.5 6.66667 8.5H2C1.72386 8.5 1.5 8.27614 1.5 8V2ZM2.5 2.5V7.5H6.16667V2.5H2.5Z" fill="#464646"/>
<path fill-rule="evenodd" clip-rule="evenodd" d="M8.83301 2C8.83301 1.72386 9.05687 1.5 9.33301 1.5H13.9997C14.2758 1.5 14.4997 1.72386 14.4997 2V5.33333C14.4997 5.60948 14.2758 5.83333 13.9997 5.83333H9.33301C9.05687 5.83333 8.83301 5.60948 8.83301 5.33333V2ZM9.83301 2.5V4.83333H13.4997V2.5H9.83301Z" fill="#464646"/>
<path fill-rule="evenodd" clip-rule="evenodd" d="M1.5 10.6667C1.5 10.3905 1.72386 10.1667 2 10.1667H6.66667C6.94281 10.1667 7.16667 10.3905 7.16667 10.6667V14C7.16667 14.2762 6.94281 14.5 6.66667 14.5H2C1.72386 14.5 1.5 14.2762 1.5 14V10.6667ZM2.5 11.1667V13.5H6.16667V11.1667H2.5Z" fill="#464646"/>
<path fill-rule="evenodd" clip-rule="evenodd" d="M8.83301 8C8.83301 7.72386 9.05687 7.5 9.33301 7.5H13.9997C14.2758 7.5 14.4997 7.72386 14.4997 8V14C14.4997 14.2761 14.2758 14.5 13.9997 14.5H9.33301C9.05687 14.5 8.83301 14.2761 8.83301 14V8ZM9.83301 8.5V13.5H13.4997V8.5H9.83301Z" fill="#464646"/>
</svg>
