<svg width="16" height="16" viewBox="0 0 16 16" fill="none" xmlns="http://www.w3.org/2000/svg">
<path fill-rule="evenodd" clip-rule="evenodd" d="M14.665 7.99996C14.665 11.6809 11.6809 14.665 7.99996 14.665C4.31898 14.665 1.33496 11.6809 1.33496 7.99996C1.33496 4.31898 4.31898 1.33496 7.99996 1.33496C11.6809 1.33496 14.665 4.31898 14.665 7.99996ZM8 11.1185C8.34518 11.1185 8.625 10.8387 8.625 10.4935C8.625 10.1484 8.34518 9.86853 8 9.86853C7.65482 9.86853 7.375 10.1484 7.375 10.4935C7.375 10.8387 7.65482 11.1185 8 11.1185ZM8 4.88147C7.72386 4.88147 7.5 5.10533 7.5 5.38147V8.04761C7.5 8.32375 7.72386 8.54761 8 8.54761C8.27614 8.54761 8.5 8.32375 8.5 8.04761V5.38147C8.5 5.10533 8.27614 4.88147 8 4.88147Z" fill="#FF9933"/>
</svg>
