<svg width="16" height="16" viewBox="0 0 16 16" fill="none" xmlns="http://www.w3.org/2000/svg">
  <path d="M11.6464 2.85355C11.4512 2.65829 11.4512 2.34171 11.6464 2.14645C11.8417 1.95118 12.1583 1.95118 12.3536 2.14645L14.3536 4.14645C14.5488 4.34171 14.5488 4.65829 14.3536 4.85355L12.3536 6.85355C12.1583 7.04882 11.8417 7.04882 11.6464 6.85355C11.4512 6.65829 11.4512 6.34171 11.6464 6.14645L12.7883 5.00463L12.0019 5.00763H12C11.5404 5.00763 11.0852 5.09816 10.6606 5.27405C10.236 5.44994 9.85013 5.70775 9.52513 6.03276C9.20012 6.35776 8.94231 6.7436 8.76642 7.16824C8.59053 7.59288 8.5 8.048 8.5 8.50763V10C8.5 10.2761 8.27614 10.5 8 10.5C7.72386 10.5 7.5 10.2761 7.5 10V8.50763C7.5 7.91668 7.6164 7.33152 7.84254 6.78555C8.06869 6.23959 8.40016 5.74351 8.81802 5.32565C9.23588 4.90779 9.73196 4.57632 10.2779 4.35017C10.8236 4.12415 11.4084 4.00776 11.999 4.00763L12.7975 4.00458L11.6464 2.85355Z" fill="#636363"/>
  <path d="M15 13V10C15 9.73478 14.8946 9.48043 14.7071 9.29289C14.5196 9.10536 14.2652 9 14 9L11.5 9C11.3674 9 11.2402 9.05268 11.1464 9.14645C11.0527 9.24021 11 9.36739 11 9.5C11 9.63261 11.0527 9.75979 11.1464 9.85355C11.2402 9.94732 11.3674 10 11.5 10L14 10V13H2V10H4.5C4.63261 10 4.75979 9.94732 4.85355 9.85355C4.94732 9.75979 5 9.63261 5 9.5C5 9.36739 4.94732 9.24021 4.85355 9.14645C4.75979 9.05268 4.63261 9 4.5 9H2C1.73478 9 1.48043 9.10536 1.29289 9.29289C1.10536 9.48043 1 9.73478 1 10V13C1 13.2652 1.10536 13.5196 1.29289 13.7071C1.48043 13.8946 1.73478 14 2 14H14C14.2652 14 14.5196 13.8946 14.7071 13.7071C14.8946 13.5196 15 13.2652 15 13Z" fill="#636363"/>
</svg>
