<svg width="16" height="16" viewBox="0 0 16 16" fill="none" xmlns="http://www.w3.org/2000/svg">
<path d="M12.9933 5.33906L9.96298 2.13393C9.92274 2.09142 9.87499 2.05772 9.82244 2.03474C9.76988 2.01176 9.71357 1.99995 9.6567 2H4.46189C4.23227 2 4.01205 2.09648 3.84968 2.26822C3.68731 2.43995 3.59609 2.67288 3.59609 2.91575V7.54213C3.59609 7.66356 3.6417 7.78002 3.72289 7.86589C3.80407 7.95176 3.91418 8 4.02899 8C4.14381 8 4.25392 7.95176 4.3351 7.86589C4.41629 7.78002 4.46189 7.66356 4.46189 7.54213V2.91575H9.2238V5.663C9.2238 5.78444 9.26941 5.9009 9.35059 5.98677C9.43178 6.07264 9.54189 6.12088 9.6567 6.12088H12.2541V12.989H10.9333C10.8185 12.989 10.7084 13.0373 10.6272 13.1231C10.546 13.209 10.5004 13.3255 10.5004 13.4469C10.5004 13.5683 10.546 13.6848 10.6272 13.7707C10.7084 13.8565 10.8185 13.9048 10.9333 13.9048H12.2541C12.4837 13.9048 12.7039 13.8083 12.8663 13.6365C13.0287 13.4648 13.1199 13.2319 13.1199 12.989V5.663C13.1199 5.60286 13.1088 5.54329 13.0871 5.48771C13.0653 5.43212 13.0335 5.38161 12.9933 5.33906ZM10.0896 3.56307L11.6421 5.20513H10.0896V3.56307Z" fill="currentColor"/>
<path fill-rule="evenodd" clip-rule="evenodd" d="M6.50039 10.2C5.78242 10.2 5.20039 10.782 5.20039 11.5C5.20039 12.218 5.78242 12.8 6.50039 12.8C7.21836 12.8 7.80039 12.218 7.80039 11.5C7.80039 10.782 7.21836 10.2 6.50039 10.2ZM6.00039 11.5C6.00039 11.2239 6.22425 11 6.50039 11C6.77653 11 7.00039 11.2239 7.00039 11.5C7.00039 11.7761 6.77653 12 6.50039 12C6.22425 12 6.00039 11.7761 6.00039 11.5Z" fill="currentColor"/>
<path fill-rule="evenodd" clip-rule="evenodd" d="M6.50039 7.9C6.24 7.9 5.99027 8.00344 5.80614 8.18757C5.62201 8.37169 5.51857 8.62142 5.51857 8.88182V8.93013C5.51842 8.94557 5.51381 8.96065 5.50528 8.97353C5.50237 8.97792 5.49906 8.98198 5.49539 8.98568C5.47751 8.99075 5.45996 8.99706 5.44288 9.0046C5.42826 9.01105 5.41204 9.01298 5.39631 9.01013C5.381 9.00735 5.36684 9.00017 5.35556 8.98949L5.34048 8.97441C5.2493 8.88312 5.14101 8.8107 5.02182 8.76129C4.90263 8.71188 4.77487 8.68645 4.64585 8.68645C4.51682 8.68645 4.38906 8.71188 4.26987 8.76129C4.15081 8.81064 4.04264 8.88295 3.95152 8.97409C3.86024 9.06528 3.78782 9.17356 3.73841 9.29275C3.689 9.41194 3.66357 9.5397 3.66357 9.66873C3.66357 9.79775 3.689 9.92551 3.73841 10.0447C3.78782 10.1639 3.86024 10.2722 3.95152 10.3634L3.9666 10.3784C3.97729 10.3897 3.98447 10.4039 3.98725 10.4192C3.9901 10.4349 3.98817 10.4511 3.98172 10.4658C3.97832 10.4735 3.97516 10.4813 3.97225 10.4892C3.96671 10.5043 3.95676 10.5173 3.94371 10.5267C3.93139 10.5355 3.91683 10.5406 3.90175 10.5415H3.88221C3.62181 10.5415 3.37209 10.6449 3.18796 10.829C3.00383 11.0131 2.90039 11.2629 2.90039 11.5233C2.90039 11.7837 3.00383 12.0334 3.18796 12.2175C3.37209 12.4017 3.62181 12.5051 3.88221 12.5051H3.93055C3.94599 12.5052 3.96105 12.5099 3.97392 12.5184C3.98693 12.527 3.99713 12.5392 4.00328 12.5536L4.00499 12.5575C4.01145 12.5721 4.01337 12.5884 4.01052 12.6041C4.00774 12.6194 4.00057 12.6335 3.98988 12.6448L3.97464 12.6601C3.88343 12.7512 3.81106 12.8594 3.76168 12.9786C3.71227 13.0978 3.68684 13.2255 3.68684 13.3545C3.68684 13.4836 3.71227 13.6113 3.76168 13.7305C3.81104 13.8496 3.88334 13.9577 3.97448 14.0489C4.06567 14.1402 4.17395 14.2126 4.29314 14.262C4.41233 14.3114 4.54009 14.3368 4.66912 14.3368C4.79814 14.3368 4.92591 14.3114 5.0451 14.262C5.16422 14.2126 5.27245 14.1402 5.3636 14.049L5.37884 14.0338C5.39012 14.0231 5.40428 14.0159 5.41958 14.0131C5.43531 14.0103 5.45153 14.0122 5.46616 14.0187C5.47387 14.0221 5.48168 14.0252 5.48959 14.0281C5.50466 14.0337 5.51771 14.0436 5.52705 14.0567C5.53586 14.069 5.54098 14.0836 5.54185 14.0986V14.1182C5.54185 14.3786 5.64529 14.6283 5.82941 14.8124C6.01354 14.9966 6.26327 15.1 6.52366 15.1C6.78406 15.1 7.03379 14.9966 7.21791 14.8124C7.40204 14.6283 7.50548 14.3786 7.50548 14.1182V14.0698C7.50564 14.0544 7.51025 14.0393 7.51878 14.0265C7.52739 14.0135 7.53962 14.0033 7.55396 13.9971L7.5579 13.9954C7.57252 13.9889 7.58874 13.987 7.60447 13.9899C7.61978 13.9926 7.63393 13.9998 7.64521 14.0105L7.6603 14.0256L7.66046 14.0258C7.75161 14.117 7.85984 14.1893 7.97896 14.2387C8.09815 14.2881 8.22591 14.3135 8.35494 14.3135C8.48396 14.3135 8.61172 14.2881 8.73091 14.2387C8.84997 14.1894 8.95814 14.117 9.04926 14.0259C9.14054 13.9347 9.21296 13.8264 9.26237 13.7073C9.31178 13.5881 9.33721 13.4603 9.33721 13.3313C9.33721 13.2022 9.31178 13.0745 9.26237 12.9553C9.21299 12.8362 9.14063 12.7279 9.04941 12.6368L9.04926 12.6366L9.03418 12.6216C9.02349 12.6103 9.01631 12.5961 9.01354 12.5808C9.01068 12.5651 9.01261 12.5489 9.01906 12.5342L9.02077 12.5303C9.02692 12.516 9.03712 12.5037 9.05013 12.4951C9.06301 12.4866 9.07807 12.482 9.0935 12.4818H9.11857C9.37897 12.4818 9.6287 12.3784 9.81282 12.1943C9.99695 12.0101 10.1004 11.7604 10.1004 11.5C10.1004 11.2396 9.99695 10.9899 9.81282 10.8057C9.6287 10.6216 9.37897 10.5182 9.11857 10.5182H9.07026C9.05482 10.518 9.03974 10.5134 9.02686 10.5049C9.02247 10.502 9.01841 10.4987 9.01471 10.495C9.00964 10.4771 9.00333 10.4596 8.99579 10.4425C8.98934 10.4279 8.98741 10.4116 8.99026 10.3959C8.99304 10.3806 9.00021 10.3665 9.0109 10.3552L9.02599 10.3401C9.11727 10.2489 9.18969 10.1406 9.2391 10.0214C9.28851 9.90224 9.31394 9.77448 9.31394 9.64545C9.31394 9.51643 9.28851 9.38867 9.2391 9.26948C9.18975 9.15042 9.11744 9.04225 9.0263 8.95113C8.93512 8.85985 8.82683 8.78743 8.70764 8.73802C8.58845 8.68861 8.46069 8.66318 8.33166 8.66318C8.20264 8.66318 8.07488 8.68861 7.95569 8.73802C7.83656 8.7874 7.72834 8.85976 7.63718 8.95098L7.62194 8.96622C7.61066 8.9769 7.59651 8.98408 7.5812 8.98686C7.56547 8.98971 7.54925 8.98778 7.53462 8.98133L7.53069 8.97962C7.51635 8.97347 7.50412 8.96327 7.49551 8.95026C7.48698 8.93739 7.48236 8.92232 7.48221 8.90689V8.88182C7.48221 8.62142 7.37877 8.37169 7.19464 8.18757C7.01051 8.00344 6.76079 7.9 6.50039 7.9ZM6.37183 8.75325C6.40592 8.71916 6.45217 8.7 6.50039 8.7C6.54861 8.7 6.59486 8.71916 6.62896 8.75325C6.66305 8.78735 6.68221 8.8336 6.68221 8.88182V8.908L6.68221 8.9096C6.6829 9.08122 6.73375 9.24889 6.82851 9.39198C6.92288 9.53447 7.05669 9.64639 7.21359 9.71409C7.37393 9.78438 7.55162 9.80526 7.72393 9.77402C7.89694 9.74265 8.05658 9.66017 8.18228 9.53722L8.18542 9.53411L8.20303 9.5165C8.21991 9.4996 8.23996 9.48619 8.26204 9.47704C8.28411 9.46789 8.30777 9.46318 8.33166 9.46318C8.35556 9.46318 8.37922 9.46789 8.40129 9.47704C8.42336 9.48619 8.44341 9.4996 8.4603 9.5165L8.46061 9.51682C8.47752 9.5337 8.49093 9.55376 8.50008 9.57583C8.50923 9.5979 8.51394 9.62156 8.51394 9.64545C8.51394 9.66935 8.50923 9.69301 8.50008 9.71508C8.49093 9.73715 8.47752 9.7572 8.46061 9.77409L8.443 9.7917L8.4399 9.79484C8.31695 9.92054 8.23447 10.0802 8.2031 10.2532C8.17651 10.3998 8.18767 10.5504 8.23493 10.6908C8.24012 10.7231 8.24926 10.7547 8.26219 10.7848C8.3298 10.9426 8.44205 11.0771 8.58514 11.1719C8.72823 11.2666 8.8959 11.3175 9.06752 11.3182L9.06912 11.3182H9.11857C9.16679 11.3182 9.21304 11.3373 9.24714 11.3714C9.28124 11.4055 9.30039 11.4518 9.30039 11.5C9.30039 11.5482 9.28124 11.5945 9.24714 11.6286C9.21304 11.6627 9.16679 11.6818 9.11857 11.6818H9.09239L9.0908 11.6818C8.91918 11.6825 8.7515 11.7334 8.60841 11.8281C8.46592 11.9225 8.354 12.0563 8.2863 12.2132C8.21601 12.3735 8.19513 12.5512 8.22637 12.7235C8.25774 12.8965 8.34022 13.0562 8.46317 13.1819L8.46628 13.185L8.48389 13.2026C8.50079 13.2195 8.5142 13.2396 8.52335 13.2616C8.5325 13.2837 8.53721 13.3074 8.53721 13.3313C8.53721 13.3552 8.5325 13.3788 8.52335 13.4009C8.5142 13.423 8.50079 13.443 8.48389 13.4599L8.48357 13.4602C8.46669 13.4771 8.44663 13.4905 8.42456 13.4997C8.40249 13.5088 8.37883 13.5135 8.35494 13.5135C8.33104 13.5135 8.30738 13.5088 8.28531 13.4997C8.26324 13.4905 8.24319 13.4771 8.2263 13.4602L8.20869 13.4426L8.20555 13.4395C8.07986 13.3166 7.92021 13.2341 7.7472 13.2027C7.5749 13.1715 7.39721 13.1923 7.23686 13.2626C7.07996 13.3303 6.94615 13.4423 6.85178 13.5848C6.75702 13.7278 6.70617 13.8955 6.70548 14.0671L6.70548 14.0687V14.1182C6.70548 14.1664 6.68633 14.2126 6.65223 14.2467C6.61813 14.2808 6.57188 14.3 6.52366 14.3C6.47544 14.3 6.4292 14.2808 6.3951 14.2467C6.361 14.2126 6.34185 14.1664 6.34185 14.1182V14.092C6.34185 14.0889 6.34181 14.0858 6.34174 14.0826C6.33761 13.9061 6.28047 13.7349 6.17774 13.5913C6.07747 13.4511 5.93829 13.3435 5.77756 13.2818C5.61975 13.2148 5.44572 13.1954 5.27686 13.226C5.10385 13.2573 4.9442 13.3398 4.8185 13.4628L4.81536 13.4659L4.79775 13.4835C4.78087 13.5004 4.76082 13.5138 4.73874 13.523C4.71667 13.5321 4.69301 13.5368 4.66912 13.5368C4.64522 13.5368 4.62157 13.5321 4.59949 13.523C4.57742 13.5138 4.55737 13.5004 4.54048 13.4835L4.54017 13.4832C4.52326 13.4663 4.50985 13.4462 4.5007 13.4242C4.49155 13.4021 4.48684 13.3784 4.48684 13.3545C4.48684 13.3307 4.49155 13.307 4.5007 13.2849C4.50985 13.2628 4.52326 13.2428 4.54017 13.2259L4.55778 13.2083L4.56088 13.2052C4.68383 13.0795 4.76631 12.9198 4.79768 12.7468C4.82893 12.5745 4.80805 12.3968 4.73775 12.2365C4.67006 12.0796 4.55814 11.9458 4.41564 11.8514C4.27255 11.7566 4.10488 11.7058 3.93326 11.7051L3.93166 11.7051H3.88221C3.83399 11.7051 3.78774 11.6859 3.75364 11.6518C3.71955 11.6177 3.70039 11.5715 3.70039 11.5233C3.70039 11.4751 3.71955 11.4288 3.75364 11.3947C3.78774 11.3606 3.83399 11.3415 3.88221 11.3415H3.90839C3.91151 11.3415 3.91463 11.3414 3.91774 11.3413C4.09427 11.3372 4.26548 11.2801 4.4091 11.1774C4.5493 11.0771 4.65688 10.9379 4.71863 10.7772C4.78559 10.6194 4.80503 10.4453 4.77441 10.2765C4.74304 10.1035 4.66056 9.94381 4.53761 9.81811L4.53451 9.81498L4.51689 9.79736C4.49999 9.78048 4.48658 9.76043 4.47743 9.73835C4.46828 9.71628 4.46357 9.69262 4.46357 9.66873C4.46357 9.64483 4.46828 9.62117 4.47743 9.5991C4.48658 9.57703 4.49999 9.55698 4.51689 9.54009L4.51721 9.53978C4.53409 9.52287 4.55415 9.50946 4.57622 9.50031C4.59829 9.49116 4.62195 9.48645 4.64585 9.48645C4.66974 9.48645 4.6934 9.49116 4.71547 9.50031C4.73754 9.50946 4.7576 9.52287 4.77448 9.53978L4.79209 9.55739L4.79523 9.56049C4.92093 9.68344 5.08057 9.76592 5.25358 9.79729C5.40023 9.82388 5.55078 9.81272 5.69122 9.76546C5.72348 9.76027 5.75506 9.75113 5.78524 9.7382C5.94298 9.67059 6.07751 9.55834 6.17227 9.41525C6.26703 9.27216 6.31788 9.10449 6.31857 8.93287L6.31857 8.93127V8.88182C6.31857 8.8336 6.33773 8.78735 6.37183 8.75325Z" fill="currentColor"/>
</svg>
