<svg width="16" height="16" viewBox="0 0 16 16" fill="none" xmlns="http://www.w3.org/2000/svg">
  <path fill-rule="evenodd" clip-rule="evenodd" d="M14.665 7.99996C14.665 11.6809 11.6809 14.665 7.99996 14.665C4.31898 14.665 1.33496 11.6809 1.33496 7.99996C1.33496 4.31898 4.31898 1.33496 7.99996 1.33496C11.6809 1.33496 14.665 4.31898 14.665 7.99996ZM7 7.49268C7 7.21653 7.22386 6.99268 7.5 6.99268H8C8.27614 6.99268 8.5 7.21653 8.5 7.49268V10.4927C8.77614 10.4927 9 10.7165 9 10.9927C9 11.2688 8.77614 11.4927 8.5 11.4927H8C7.72386 11.4927 7.5 11.2688 7.5 10.9927V7.99268C7.22386 7.99268 7 7.76882 7 7.49268ZM8.625 5.24268C8.625 5.65689 8.28921 5.99268 7.875 5.99268C7.46079 5.99268 7.125 5.65689 7.125 5.24268C7.125 4.82846 7.46079 4.49268 7.875 4.49268C8.28921 4.49268 8.625 4.82846 8.625 5.24268Z" fill="currentColor"/>
</svg>
