<svg width="16" height="16" viewBox="0 0 16 16" fill="none" xmlns="http://www.w3.org/2000/svg">
  <path d="M9.64645 7.64645C9.84171 7.45118 10.1583 7.45118 10.3536 7.64645C10.5488 7.84171 10.5488 8.15829 10.3536 8.35355L8.35355 10.3536C8.15829 10.5488 7.84171 10.5488 7.64645 10.3536L5.64645 8.35355C5.45118 8.15829 5.45118 7.84171 5.64645 7.64645C5.84171 7.45118 6.15829 7.45118 6.35355 7.64645L7.49537 8.78827L7.49237 8.00191L7.49237 8C7.49237 7.54037 7.40184 7.08525 7.22595 6.66061C7.05006 6.23597 6.79225 5.85013 6.46724 5.52513C6.14224 5.20012 5.7564 4.94231 5.33176 4.76642C4.90712 4.59053 4.452 4.5 3.99237 4.5L2.5 4.5C2.22386 4.5 2 4.27614 2 4C2 3.72386 2.22386 3.5 2.5 3.5H3.99237C4.58332 3.5 5.16848 3.6164 5.71445 3.84254C6.26041 4.06869 6.75649 4.40016 7.17435 4.81802C7.59222 5.23588 7.92368 5.73196 8.14983 6.27792C8.37585 6.82359 8.49224 7.40841 8.49237 7.99903L8.49542 8.79748L9.64645 7.64645Z" fill="currentColor"/>
  <path d="M15 13V10C15 9.73479 14.8946 9.48043 14.7071 9.29289C14.5196 9.10536 14.2652 9 14 9L12 9C11.8674 9 11.7402 9.05268 11.6464 9.14645C11.5527 9.24021 11.5 9.36739 11.5 9.5C11.5 9.63261 11.5527 9.75979 11.6464 9.85355C11.7402 9.94732 11.8674 10 12 10L14 10V13H2V10L4 10C4.13261 10 4.25979 9.94732 4.35355 9.85355C4.44732 9.75979 4.5 9.63261 4.5 9.5C4.5 9.36739 4.44732 9.24021 4.35355 9.14645C4.25979 9.05268 4.13261 9 4 9L2 9C1.73478 9 1.48043 9.10536 1.29289 9.29289C1.10536 9.48043 1 9.73479 1 10V13C1 13.2652 1.10536 13.5196 1.29289 13.7071C1.48043 13.8946 1.73478 14 2 14H14C14.2652 14 14.5196 13.8946 14.7071 13.7071C14.8946 13.5196 15 13.2652 15 13Z" fill="currentColor"/>
</svg>
