<svg width="16" height="16" viewBox="0 0 16 16" fill="none" xmlns="http://www.w3.org/2000/svg">
<path fill-rule="evenodd" clip-rule="evenodd" d="M11.7932 3.58045L11.2798 4.02676L11.4096 4.69456L12.0528 4.91605L12.5662 4.46973L12.4364 3.80193L11.7932 3.58045ZM13.3079 3.04438L11.5729 2.44696L10.188 3.65083L10.5381 5.45211L12.2731 6.04953L13.658 4.84566L13.3079 3.04438Z" fill="currentColor"/>
<path fill-rule="evenodd" clip-rule="evenodd" d="M10.633 6.93256L10.1196 7.37887L10.2494 8.04667L10.8927 8.26816L11.4061 7.82184L11.2763 7.15404L10.633 6.93256ZM12.1477 6.39649L10.4127 5.79907L9.02783 7.00294L9.37796 8.80423L11.113 9.40164L12.4979 8.19778L12.1477 6.39649Z" fill="currentColor"/>
<path fill-rule="evenodd" clip-rule="evenodd" d="M8.30151 4.25928L7.78808 4.7056L7.91788 5.3734L8.56112 5.59488L9.07455 5.14856L8.94474 4.48076L8.30151 4.25928ZM9.8162 3.72321L8.08118 3.12579L6.69629 4.32966L7.04642 6.13095L8.78145 6.72837L10.1663 5.5245L9.8162 3.72321Z" fill="currentColor"/>
<path fill-rule="evenodd" clip-rule="evenodd" d="M5.96947 1.586L5.45605 2.03232L5.58585 2.70012L6.22909 2.9216L6.74252 2.47528L6.61271 1.80748L5.96947 1.586ZM7.48417 1.04993L5.74915 0.452515L4.36425 1.65638L4.71439 3.45767L6.44942 4.05509L7.83431 2.85122L7.48417 1.04993Z" fill="currentColor"/>
<path fill-rule="evenodd" clip-rule="evenodd" d="M7.14086 7.61133L6.62743 8.05765L6.75724 8.72545L7.40048 8.94693L7.9139 8.50061L7.7841 7.83281L7.14086 7.61133ZM8.65556 7.07526L6.92053 6.47784L5.53564 7.68171L5.88578 9.483L7.6208 10.0804L9.00569 8.87655L8.65556 7.07526Z" fill="currentColor"/>
<path d="M13.4569 11.2974H4.72688C4.48688 11.2974 4.27688 11.1274 4.23688 10.8874C3.06687 4.35744 2.79688 2.86744 2.77688 2.76744C2.76688 2.70744 2.75688 2.68744 2.75688 2.68744C2.71688 2.65744 2.63688 2.62744 2.54688 2.62744H1.29688C1.01687 2.62744 0.796875 2.40744 0.796875 2.12744C0.796875 1.84744 1.01687 1.62744 1.29688 1.62744H2.54688C2.83687 1.62744 3.12687 1.71744 3.33687 1.87744C3.45687 1.96744 3.53688 2.05744 3.60687 2.16744C3.67687 2.27744 3.72688 2.40744 3.75688 2.57744C3.78688 2.71744 4.19687 5.02744 5.14687 10.2974H13.0469L14.2169 4.19744C14.2469 4.06744 14.3169 3.95744 14.4269 3.87744C14.5369 3.80744 14.6769 3.77744 14.7969 3.79744C14.9269 3.82744 15.0469 3.89744 15.1169 4.00744C15.1869 4.11744 15.2169 4.24744 15.1969 4.38744L13.9469 10.8874C13.8969 11.1274 13.6969 11.2974 13.4569 11.2974Z" fill="currentColor"/>
<path d="M5.41687 15.5474C4.45687 15.5474 3.66687 14.7574 3.66687 13.7974C3.66687 12.8374 4.44687 12.0474 5.41687 12.0474C6.38688 12.0474 7.15688 12.8374 7.15688 13.7974C7.15688 14.7574 6.37687 15.5474 5.41687 15.5474ZM5.41687 13.0374C5.00688 13.0374 4.66687 13.3774 4.66687 13.7874C4.66687 14.1974 4.99687 14.5374 5.41687 14.5374C5.83687 14.5374 6.16687 14.1974 6.16687 13.7874C6.16687 13.3774 5.83687 13.0374 5.41687 13.0374Z" fill="currentColor"/>
<path d="M12.8869 15.5474C11.9269 15.5474 11.1369 14.7574 11.1369 13.7974C11.1369 12.8374 11.9169 12.0474 12.8869 12.0474C13.8569 12.0474 14.6269 12.8374 14.6269 13.7974C14.6269 14.7574 13.8469 15.5474 12.8869 15.5474ZM12.8869 13.0374C12.4769 13.0374 12.1369 13.3774 12.1369 13.7874C12.1369 14.1974 12.4669 14.5374 12.8869 14.5374C13.3069 14.5374 13.6369 14.1974 13.6369 13.7874C13.6369 13.3774 13.3069 13.0374 12.8869 13.0374Z" fill="currentColor"/>
</svg>
