<svg width="13" height="14" viewBox="0 0 13 14" fill="none" xmlns="http://www.w3.org/2000/svg">
    <path
      d="M2.28936 1.05835L3.64993 1.84726V3.42508L2.28936 4.20186L0.92758 3.41538V1.84726L2.28936 1.05835ZM2.28936 0L0.0112305 1.31445V3.94455L2.28936 5.26021L4.56628 3.94455V1.31445L2.28936 0Z"
      fill="#FF9933" />
    <path
      d="M4.80866 5.42823L6.17286 6.21592V7.79374L4.80866 8.57052L3.44809 7.78525V6.21592L4.80866 5.43065V5.42823ZM4.80866 4.3723L2.53174 5.68432V8.31443L4.80866 9.63008L7.08679 8.31443V5.68432L4.80866 4.36987V4.3723Z"
      fill="#F03F44" />
    <path
      d="M7.34063 9.79931L8.7012 10.5858V12.1636L7.34063 12.9489L5.97885 12.1563V10.5858L7.34063 9.80053V9.79931ZM7.34063 8.74096L5.0625 10.0554V12.6855L7.34063 14L9.61755 12.6855V10.0554L7.34063 8.73975V8.74096Z"
      fill="#1890FF" />
    <path
      d="M2.27813 9.79931L3.6387 10.5858V12.1636L2.27813 12.9489L0.917564 12.1563V10.5858L2.27813 9.80053V9.79931ZM2.27813 8.74096L0 10.0554V12.6855L2.27813 14L4.55626 12.6855V10.0554L2.27813 8.73975V8.74096Z"
      fill="#26A570" />
    <path
      d="M9.84893 5.54157L11.2107 6.32927V7.90709L9.84893 8.68386L8.48836 7.89859V6.32927L9.84893 5.544V5.54157ZM9.84893 4.48564L7.5708 5.79766V8.42777L9.84893 9.74343L12.1271 8.42777V5.79766L9.84893 4.48322V4.48564Z"
      fill="#5F36DD" />
</svg>
