<svg width="16" height="16" viewBox="0 0 16 16" fill="none" xmlns="http://www.w3.org/2000/svg">
  <path fill-rule="evenodd" clip-rule="evenodd"
    d="M8.5001 2.5C8.5001 2.22386 8.27625 2 8.0001 2C7.72396 2 7.5001 2.22386 7.5001 2.5V4.20996L4.25205 6.06587C4.09625 6.15489 4.0001 6.32057 4.0001 6.5V10.2324L2.14262 11.4707C1.91286 11.6239 1.85077 11.9344 2.00395 12.1641C2.15713 12.3939 2.46756 12.456 2.69733 12.3028L4.52036 11.0874L7.75228 12.9341C7.906 13.022 8.09471 13.022 8.24842 12.9341L11.4991 11.0765L13.4156 12.1829C13.6547 12.321 13.9605 12.2391 14.0986 11.9999C14.2366 11.7608 14.1547 11.455 13.9156 11.3169L12.0001 10.211V6.5C12.0001 6.32058 11.904 6.15491 11.7482 6.06589L8.5001 4.20971V2.5ZM5.0001 10.2098V6.79017L8.00032 5.07588L11.0001 6.79015V10.2098L8.00032 11.9241L5.0001 10.2098Z"
    fill="currentColor" />
</svg>
