<svg width="16" height="16" viewBox="0 0 16 16" fill="none" xmlns="http://www.w3.org/2000/svg">
  <path fill-rule="evenodd" clip-rule="evenodd"
    d="M9.64612 2.31295C9.84138 2.11769 10.158 2.11769 10.3532 2.31295L12.3532 4.31295C12.5485 4.50821 12.5485 4.8248 12.3532 5.02006L10.3532 7.02006C10.158 7.21532 9.84138 7.21532 9.64612 7.02006C9.45086 6.8248 9.45086 6.50821 9.64612 6.31295L10.7926 5.1665H5.33301C4.50458 5.1665 3.83301 5.83808 3.83301 6.6665V7.33317C3.83301 7.60931 3.60915 7.83317 3.33301 7.83317C3.05687 7.83317 2.83301 7.60931 2.83301 7.33317V6.6665C2.83301 5.28579 3.9523 4.1665 5.33301 4.1665H10.7926L9.64612 3.02006C9.45086 2.8248 9.45086 2.50821 9.64612 2.31295Z"
    fill="currentColor" />
  <path fill-rule="evenodd" clip-rule="evenodd"
    d="M5.68689 13.6867C5.49162 13.8819 5.17504 13.8819 4.97978 13.6867L2.97978 11.6867C2.88601 11.5929 2.83333 11.4657 2.83333 11.3331C2.83333 11.2005 2.88601 11.0733 2.97978 10.9796L4.97978 8.97958C5.17504 8.78432 5.49162 8.78432 5.68689 8.97958C5.88215 9.17484 5.88215 9.49142 5.68689 9.68668L4.54044 10.8331H10C10.8284 10.8331 11.5 10.1616 11.5 9.33313V8.66646C11.5 8.39032 11.7239 8.16646 12 8.16646C12.2761 8.16646 12.5 8.39032 12.5 8.66646V9.33313C12.5 10.7138 11.3807 11.8331 10 11.8331H4.54044L5.68689 12.9796C5.88215 13.1748 5.88215 13.4914 5.68689 13.6867Z"
    fill="currentColor" />
</svg>
