<svg width="16" height="16" viewBox="0 0 16 16" fill="none" xmlns="http://www.w3.org/2000/svg">
<path d="M6.5 2C6.22386 2 6 2.22386 6 2.5C6 2.77614 6.22386 3 6.5 3H12V6.71393C12.3471 6.76358 12.6819 6.85143 13 6.97309V2.5C13 2.22386 12.7761 2 12.5 2H6.5Z" fill="currentColor"/>
<path d="M11 4.5V6.67839C10.655 6.70274 10.3203 6.7646 10 6.85992V5H4.5C4.22386 5 4 4.77614 4 4.5C4 4.22386 4.22386 4 4.5 4H10.5C10.7761 4 11 4.22386 11 4.5Z" fill="currentColor"/>
<path d="M9 7.29098V6.5C9 6.22386 8.77614 6 8.5 6H2.5C2.22386 6 2 6.22386 2 6.5V12.5C2 12.7761 2.22386 13 2.5 13H6.97309C6.85143 12.6819 6.76358 12.3471 6.71393 12H3V7H8V8.06735C8.29565 7.76564 8.63194 7.5039 9 7.29098Z" fill="currentColor"/>
<path fill-rule="evenodd" clip-rule="evenodd" d="M9.94531 11.3333C9.94531 10.5669 10.5666 9.94556 11.3331 9.94556C12.0995 9.94556 12.7208 10.5669 12.7208 11.3333C12.7208 12.0997 12.0995 12.7211 11.3331 12.7211C10.5666 12.7211 9.94531 12.0997 9.94531 11.3333ZM11.3331 10.7619C11.0175 10.7619 10.7616 11.0177 10.7616 11.3333C10.7616 11.6489 11.0175 11.9047 11.3331 11.9047C11.6487 11.9047 11.9045 11.6489 11.9045 11.3333C11.9045 11.0177 11.6487 10.7619 11.3331 10.7619Z" fill="currentColor"/>
<path fill-rule="evenodd" clip-rule="evenodd" d="M11.3333 7.33333C11.0519 7.33333 10.782 7.44514 10.5829 7.64416C10.3839 7.84318 10.2721 8.1131 10.2721 8.39456V8.44898C10.2719 8.47426 10.2644 8.49895 10.2504 8.52004C10.2434 8.53054 10.235 8.53993 10.2255 8.54795C10.2041 8.55348 10.1831 8.56075 10.1628 8.56972C10.1389 8.58025 10.1125 8.5834 10.0868 8.57874C10.0616 8.57417 10.0383 8.5623 10.0198 8.54463L10.0024 8.52717C9.90383 8.42858 9.78685 8.35036 9.65809 8.29698C9.52926 8.24357 9.39116 8.21609 9.2517 8.21609C9.11224 8.21609 8.97415 8.24357 8.84532 8.29698C8.71656 8.35036 8.59957 8.42858 8.50105 8.52717C8.40245 8.62569 8.32423 8.74268 8.27086 8.87144C8.21745 9.00027 8.18996 9.13836 8.18996 9.27782C8.18996 9.41728 8.21745 9.55538 8.27086 9.68421C8.32423 9.81297 8.40261 9.93011 8.50121 10.0286L8.5185 10.0459C8.53618 10.0644 8.54805 10.0877 8.55262 10.1129C8.55727 10.1386 8.55413 10.1651 8.54359 10.1889C8.54012 10.1968 8.5369 10.2048 8.53393 10.2129C8.52488 10.2374 8.50865 10.2588 8.48733 10.274C8.46687 10.2886 8.44263 10.297 8.41755 10.2982H8.39456C8.1131 10.2982 7.84318 10.41 7.64416 10.6091C7.44514 10.8081 7.33333 11.078 7.33333 11.3595C7.33333 11.6409 7.44514 11.9108 7.64416 12.1099C7.84318 12.3089 8.1131 12.4207 8.39456 12.4207H8.44896C8.47425 12.4209 8.49894 12.4284 8.52004 12.4424C8.54127 12.4565 8.55791 12.4764 8.56795 12.4998L8.56972 12.5038C8.58025 12.5277 8.5834 12.5542 8.57874 12.5799C8.57417 12.6051 8.5623 12.6284 8.54463 12.6469L8.52717 12.6643C8.42857 12.7628 8.35036 12.8798 8.29698 13.0086C8.24357 13.1374 8.21609 13.2755 8.21609 13.415C8.21609 13.5544 8.24357 13.6925 8.29698 13.8214C8.35033 13.95 8.42849 14.067 8.52701 14.1655C8.62557 14.2641 8.74261 14.3424 8.87144 14.3958C9.00027 14.4492 9.13836 14.4767 9.27782 14.4767C9.41729 14.4767 9.55538 14.4492 9.68421 14.3958C9.81304 14.3424 9.93008 14.2641 10.0286 14.1655L10.0459 14.1482C10.0644 14.1305 10.0877 14.1186 10.1129 14.1141C10.1386 14.1094 10.1651 14.1125 10.1889 14.1231C10.1968 14.1265 10.2048 14.1298 10.2129 14.1327C10.2374 14.1418 10.2588 14.158 10.274 14.1793C10.2886 14.1998 10.297 14.224 10.2982 14.2491V14.2721C10.2982 14.5536 10.41 14.8235 10.6091 15.0225C10.8081 15.2215 11.078 15.3333 11.3595 15.3333C11.6409 15.3333 11.9108 15.2215 12.1099 15.0225C12.3089 14.8235 12.4207 14.5536 12.4207 14.2721V14.2177C12.4209 14.1924 12.4284 14.1677 12.4424 14.1466C12.4565 14.1254 12.4764 14.1088 12.4998 14.0987L12.5038 14.097C12.5277 14.0864 12.5542 14.0833 12.5799 14.0879C12.6051 14.0925 12.6284 14.1044 12.6468 14.122L12.6643 14.1395C12.7628 14.2381 12.8798 14.3163 13.0086 14.3697C13.1374 14.4231 13.2755 14.4506 13.415 14.4506C13.5544 14.4506 13.6925 14.4231 13.8214 14.3697C13.9501 14.3163 14.0671 14.2381 14.1656 14.1395C14.2642 14.041 14.3424 13.924 14.3958 13.7952C14.4492 13.6664 14.4767 13.5283 14.4767 13.3888C14.4767 13.2494 14.4492 13.1113 14.3958 12.9825C14.3424 12.8536 14.2641 12.7366 14.1655 12.638L14.1482 12.6207C14.1305 12.6022 14.1186 12.579 14.1141 12.5538C14.1094 12.5281 14.1126 12.5016 14.1231 12.4777L14.1248 12.4737C14.1349 12.4503 14.1515 12.4303 14.1728 12.4163C14.1938 12.4023 14.2185 12.3948 14.2438 12.3946H14.2721C14.5536 12.3946 14.8235 12.2828 15.0225 12.0837C15.2215 11.8847 15.3333 11.6148 15.3333 11.3333C15.3333 11.0519 15.2215 10.782 15.0225 10.5829C14.8235 10.3839 14.5536 10.2721 14.2721 10.2721H14.2177C14.1924 10.2719 14.1677 10.2644 14.1466 10.2504C14.1361 10.2434 14.1267 10.235 14.1187 10.2255C14.1132 10.2041 14.1059 10.1831 14.097 10.1628C14.0864 10.1389 14.0833 10.1125 14.0879 10.0868C14.0925 10.0616 14.1044 10.0383 14.122 10.0198L14.1393 10.0025C14.238 9.90396 14.3163 9.78692 14.3697 9.65809C14.4231 9.52926 14.4506 9.39116 14.4506 9.2517C14.4506 9.11224 14.4231 8.97415 14.3697 8.84532C14.3163 8.71648 14.238 8.59944 14.1393 8.50089C14.0408 8.40237 13.9239 8.3242 13.7952 8.27086C13.6664 8.21745 13.5283 8.18996 13.3888 8.18996C13.2494 8.18996 13.1113 8.21745 12.9825 8.27086C12.8537 8.32423 12.7366 8.40261 12.638 8.50121L12.6207 8.5185C12.6022 8.53618 12.579 8.54805 12.5538 8.55262C12.5281 8.55727 12.5016 8.55411 12.4777 8.54357L12.4737 8.54185C12.4503 8.53181 12.4303 8.51515 12.4163 8.49392C12.4023 8.47282 12.3948 8.44813 12.3946 8.42284V8.39456C12.3946 8.1131 12.2828 7.84318 12.0837 7.64416C11.8847 7.44514 11.6148 7.33333 11.3333 7.33333ZM11.1602 8.22139C11.2061 8.17546 11.2684 8.14966 11.3333 8.14966C11.3983 8.14966 11.4606 8.17546 11.5065 8.22139C11.5524 8.26732 11.5782 8.32961 11.5782 8.39456V8.42395L11.5782 8.42557C11.579 8.61025 11.6337 8.79068 11.7357 8.94465C11.8372 9.09802 11.9813 9.21847 12.1501 9.29131C12.3227 9.36699 12.514 9.38947 12.6994 9.35585C12.8856 9.32209 13.0574 9.23336 13.1926 9.10105L13.2156 9.07811C13.2383 9.05535 13.2653 9.03728 13.2951 9.02496C13.3248 9.01263 13.3567 9.00629 13.3888 9.00629C13.421 9.00629 13.4529 9.01263 13.4826 9.02496C13.5124 9.03728 13.5394 9.05534 13.5621 9.07811C13.5849 9.10086 13.6033 9.12819 13.6156 9.15792C13.6279 9.18765 13.6343 9.21952 13.6343 9.2517C13.6343 9.28388 13.6279 9.31575 13.6156 9.34548C13.6033 9.37521 13.585 9.40238 13.5623 9.42513L13.5427 9.4447L13.5395 9.44792C13.4072 9.58318 13.3185 9.75497 13.2847 9.94114C13.2559 10.1001 13.2683 10.2633 13.32 10.4153C13.3252 10.4494 13.3347 10.4827 13.3484 10.5145C13.4211 10.6843 13.5419 10.829 13.6959 10.931C13.8499 11.033 14.0303 11.0877 14.215 11.0884L14.2166 11.0884H14.2721C14.3371 11.0884 14.3994 11.1142 14.4453 11.1602C14.4912 11.2061 14.517 11.2684 14.517 11.3333C14.517 11.3983 14.4912 11.4606 14.4453 11.5065C14.3994 11.5524 14.3371 11.5782 14.2721 11.5782L14.2427 11.5782L14.2411 11.5782C14.0564 11.579 13.876 11.6337 13.722 11.7357C13.5687 11.8372 13.4482 11.9812 13.3754 12.1501C13.2997 12.3227 13.2772 12.514 13.3108 12.6994C13.3446 12.8856 13.4333 13.0574 13.5656 13.1926L13.5886 13.2156C13.6113 13.2383 13.6294 13.2653 13.6417 13.2951C13.654 13.3248 13.6604 13.3567 13.6604 13.3888C13.6604 13.421 13.654 13.4529 13.6417 13.4826C13.6294 13.5124 13.6113 13.5394 13.5886 13.5621C13.5658 13.5849 13.5385 13.6033 13.5087 13.6156C13.479 13.6279 13.4471 13.6343 13.415 13.6343C13.3828 13.6343 13.3509 13.6279 13.3212 13.6156C13.2915 13.6033 13.2643 13.585 13.2415 13.5623L13.222 13.5427L13.2187 13.5395C13.0835 13.4072 12.9117 13.3185 12.7255 13.2847C12.5401 13.2511 12.3488 13.2736 12.1762 13.3492C12.0074 13.4221 11.8633 13.5425 11.7618 13.6959C11.6598 13.8499 11.6051 14.0303 11.6044 14.215L11.6044 14.2166V14.2721C11.6044 14.3371 11.5786 14.3994 11.5326 14.4453C11.4867 14.4912 11.4244 14.517 11.3595 14.517C11.2945 14.517 11.2322 14.4912 11.1863 14.4453C11.1404 14.3994 11.1146 14.3371 11.1146 14.2721V14.2427L11.1144 14.2332C11.11 14.0432 11.0485 13.859 10.938 13.7044C10.8299 13.5534 10.6799 13.4375 10.5067 13.3711C10.3367 13.2988 10.1492 13.2778 9.96726 13.3108C9.78109 13.3446 9.60928 13.4333 9.47402 13.5656L9.45109 13.5886C9.42835 13.6113 9.40134 13.6294 9.3716 13.6417C9.34187 13.654 9.31001 13.6604 9.27782 13.6604C9.24564 13.6604 9.21377 13.654 9.18404 13.6417C9.15431 13.6294 9.1273 13.6113 9.10456 13.5886C9.08179 13.5658 9.0634 13.5385 9.05108 13.5087C9.03875 13.479 9.03241 13.4472 9.03241 13.415C9.03241 13.3828 9.03875 13.3509 9.05108 13.3212C9.0634 13.2915 9.08163 13.2643 9.1044 13.2415L9.12401 13.222L9.12716 13.2187C9.25946 13.0835 9.34821 12.9117 9.38197 12.7255C9.4156 12.5401 9.39312 12.3488 9.31743 12.1763C9.24459 12.0074 9.12414 11.8634 8.97077 11.7618C8.8168 11.6598 8.63637 11.6051 8.4517 11.6044H8.39456C8.32961 11.6044 8.26732 11.5786 8.22139 11.5326C8.17546 11.4867 8.14966 11.4244 8.14966 11.3595C8.14966 11.2945 8.17546 11.2322 8.22139 11.1863C8.26732 11.1404 8.32961 11.1146 8.39456 11.1146H8.42395L8.43349 11.1144C8.62345 11.11 8.80768 11.0485 8.96223 10.938C9.11328 10.8299 9.22915 10.6799 9.29555 10.5067C9.36782 10.3367 9.38884 10.1492 9.35585 9.96726C9.32209 9.78109 9.23336 9.60928 9.10105 9.47402L9.07811 9.45109C9.05535 9.42834 9.03728 9.40134 9.02496 9.3716C9.01263 9.34188 9.00629 9.31001 9.00629 9.27782C9.00629 9.24564 9.01263 9.21377 9.02496 9.18404C9.03728 9.15431 9.05535 9.1273 9.07811 9.10456C9.10086 9.08179 9.12819 9.0634 9.15792 9.05108C9.18765 9.03875 9.21952 9.03241 9.2517 9.03241C9.28388 9.03241 9.31575 9.03875 9.34548 9.05108C9.37521 9.0634 9.40238 9.08163 9.42513 9.1044L9.4447 9.12401L9.44792 9.12716C9.58318 9.25946 9.75497 9.34821 9.94114 9.38197C10.1001 9.41079 10.2633 9.3984 10.4153 9.34662C10.4494 9.34143 10.4827 9.33193 10.5145 9.31829C10.6843 9.24554 10.829 9.12474 10.931 8.97077C11.033 8.8168 11.0877 8.63637 11.0884 8.4517V8.39456C11.0884 8.32961 11.1142 8.26732 11.1602 8.22139Z" fill="currentColor"/>
</svg>
