<svg width="16" height="16" viewBox="0 0 16 16" fill="none" xmlns="http://www.w3.org/2000/svg">
<path d="M8.50037 2C8.50037 1.72386 8.27651 1.5 8.00037 1.5C7.72422 1.5 7.50037 1.72386 7.50037 2V3.71132L4.28625 5.56699C4.13155 5.6563 4.03625 5.82137 4.03625 6V7C4.03625 7.27614 4.26011 7.5 4.53625 7.5C4.8124 7.5 5.03625 7.27614 5.03625 7V6.28868L8.00036 4.57735L10.9645 6.28868V9.71132L7.75036 11.567C7.51121 11.7051 7.42927 12.0109 7.56734 12.25C7.70541 12.4891 8.01121 12.5711 8.25036 12.433L11.4821 10.5672L12.9824 11.4334C13.2216 11.5715 13.5274 11.4895 13.6655 11.2504C13.8035 11.0112 13.7216 10.7055 13.4824 10.5674L11.9645 9.69097V6C11.9645 5.82137 11.8692 5.6563 11.7145 5.56699L8.50037 3.71133V2Z" fill="#636363"/>
<path fill-rule="evenodd" clip-rule="evenodd" d="M3.70042 8.58038C3.88606 8.47321 4.11478 8.47321 4.30042 8.58038L6.2985 9.73397C6.48414 9.84115 6.5985 10.0392 6.5985 10.2536V12.5608C6.5985 12.7751 6.48414 12.9732 6.2985 13.0804L4.30042 14.234C4.11478 14.3412 3.88606 14.3412 3.70042 14.234L1.70234 13.0804C1.5167 12.9732 1.40234 12.7751 1.40234 12.5608V10.2536C1.40234 10.0392 1.5167 9.84115 1.70234 9.73397L3.70042 8.58038ZM2.40234 10.4845L4.00042 9.56188L5.5985 10.4845V12.3298L4.00042 13.2525L2.40234 12.3298V10.4845Z" fill="#636363"/>
</svg>
