<svg width="16" height="16" viewBox="0 0 16 16" fill="none" xmlns="http://www.w3.org/2000/svg">
<path d="M8.07466 0.761963C6.041 0.761963 4.38235 2.42062 4.38235 4.45427C4.38235 5.44445 4.82127 6.30046 5.46892 6.9555C5.6001 7.08816 5.63814 7.29045 5.54945 7.45459L4.69889 9.02876C4.63745 9.14248 4.51161 9.20152 4.38235 9.20152C3.51491 9.20152 2.79993 9.9165 2.79993 10.7839C2.79993 11.6514 3.51491 12.3664 4.38235 12.3664C5.2498 12.3664 5.96477 11.6514 5.96477 10.7839C5.96477 10.4669 5.86632 10.171 5.70123 9.9227C5.60525 9.77833 5.57537 9.59266 5.65757 9.44002L6.84712 7.23084C6.94496 7.04915 6.88851 6.82285 6.71681 6.70838L6.62411 6.64658C5.91326 6.17474 5.4373 5.37529 5.4373 4.45427C5.4373 2.99136 6.61175 1.81691 8.07466 1.81691C9.53757 1.81691 10.712 2.99136 10.712 4.45427C10.712 4.62385 10.6965 4.78784 10.6665 4.94659C10.6259 5.16186 10.7291 5.38857 10.9348 5.46399L11.1743 5.55181C11.3828 5.62826 11.6159 5.52047 11.6672 5.30441C11.7322 5.03079 11.767 4.74488 11.767 4.45427C11.767 2.42062 10.1083 0.761963 8.07466 0.761963ZM8.07466 2.87185C7.20721 2.87185 6.49224 3.58683 6.49224 4.45427C6.49224 5.32172 7.20721 6.03669 8.07466 6.03669C8.20549 6.03669 8.33379 6.09156 8.40342 6.20232L9.73949 8.3279L9.79706 8.42145C9.91148 8.60737 10.1538 8.66722 10.3416 8.55592L10.4483 8.49273C10.8356 8.26814 11.2848 8.14658 11.767 8.14658C13.2299 8.14658 14.4043 9.32103 14.4043 10.7839C14.4043 12.2469 13.2299 13.4213 11.767 13.4213C11.1254 13.4213 10.5444 13.1984 10.0903 12.8222C9.92136 12.6823 9.6725 12.664 9.50745 12.8084L9.31884 12.9734C9.15119 13.1201 9.13442 13.3774 9.30017 13.5262C9.95464 14.1139 10.8221 14.4762 11.767 14.4762C13.8006 14.4762 15.4593 12.8176 15.4593 10.7839C15.4593 8.75029 13.8006 7.09163 11.767 7.09163C11.3987 7.09163 11.0671 7.20154 10.7425 7.32917C10.5622 7.4001 10.3571 7.33452 10.2545 7.17008L9.39103 5.78618C9.29517 5.63254 9.31923 5.43618 9.41577 5.28298C9.56789 5.04154 9.65707 4.75738 9.65707 4.45427C9.65707 3.58683 8.9421 2.87185 8.07466 2.87185ZM8.07466 3.9268C8.37136 3.9268 8.60213 4.15757 8.60213 4.45427C8.60213 4.75097 8.37136 4.98174 8.07466 4.98174C7.77795 4.98174 7.54719 4.75097 7.54719 4.45427C7.54719 4.15757 7.77795 3.9268 8.07466 3.9268ZM3.8359 7.54078C3.80099 7.32079 3.59223 7.16965 3.37795 7.23046C3.08945 7.31233 2.80551 7.43022 2.5362 7.58614C0.776582 8.60194 0.168753 10.8705 1.18455 12.6301C2.20035 14.3897 4.46683 14.9975 6.2285 13.9817C7.1295 13.4603 7.65977 12.5929 7.87826 11.649C7.92285 11.4564 8.0889 11.3114 8.28661 11.3114H10.0027C10.1712 11.3114 10.3175 11.4197 10.4015 11.5658C10.6748 12.0412 11.184 12.3664 11.767 12.3664C12.6344 12.3664 13.3494 11.6514 13.3494 10.7839C13.3494 9.9165 12.6344 9.20152 11.767 9.20152C11.184 9.20152 10.6748 9.52673 10.4015 10.0021C10.3175 10.1482 10.1712 10.2565 10.0027 10.2565H7.41971C7.1988 10.2565 7.01971 10.4356 7.01971 10.6565V10.7839C7.01971 11.6947 6.54993 12.5848 5.70103 13.0752C4.43386 13.8066 2.8226 13.3698 2.09114 12.1026C1.35969 10.8355 1.7965 9.22419 3.06367 8.49273C3.22331 8.4 3.38697 8.328 3.55387 8.27368C3.76213 8.2059 3.90968 8.00558 3.87535 7.78927L3.8359 7.54078ZM4.38235 10.2565C4.67905 10.2565 4.90982 10.4872 4.90982 10.7839C4.90982 11.0806 4.67905 11.3114 4.38235 11.3114C4.08565 11.3114 3.85488 11.0806 3.85488 10.7839C3.85488 10.4872 4.08565 10.2565 4.38235 10.2565ZM11.767 10.2565C12.0637 10.2565 12.2944 10.4872 12.2944 10.7839C12.2944 11.0806 12.0637 11.3114 11.767 11.3114C11.4703 11.3114 11.2395 11.0806 11.2395 10.7839C11.2395 10.4872 11.4703 10.2565 11.767 10.2565Z" fill="currentColor"/>
</svg>
