<svg width="16" height="16" viewBox="0 0 16 16" fill="none" xmlns="http://www.w3.org/2000/svg">
  <path fill-rule="evenodd" clip-rule="evenodd" d="M14 8C14 11.3137 11.3137 14 8 14C4.68629 14 2 11.3137 2 8C2 4.68629 4.68629 2 8 2C11.3137 2 14 4.68629 14 8ZM9.41441 5.87869C9.60968 5.68342 9.92624 5.68342 10.1215 5.87869C10.3168 6.07396 10.3168 6.39053 10.1215 6.5858L8.7073 8.00001L10.1215 9.41423C10.3168 9.6095 10.3168 9.92606 10.1215 10.1213C9.92624 10.3166 9.60968 10.3166 9.41441 10.1213L8.00019 8.70712L6.58598 10.1213C6.39071 10.3166 6.07414 10.3166 5.87887 10.1213C5.6836 9.92606 5.6836 9.6095 5.87887 9.41423L7.29309 8.00001L5.87887 6.5858C5.6836 6.39053 5.6836 6.07396 5.87887 5.87869C6.07414 5.68342 6.39071 5.68342 6.58598 5.87869L8.00019 7.2929L9.41441 5.87869Z" fill="#F5222D"/>
</svg>
