<svg width="57" height="56" viewBox="0 0 57 56" fill="none" xmlns="http://www.w3.org/2000/svg">
<ellipse cx="28.7949" cy="30.018" rx="28" ry="6.3063" fill="#F5F5F5"/>
<path d="M38.1055 0.5L48.8574 12.1152V17.875H8.73242V12.1152L19.4844 0.5H38.1055Z" fill="white" stroke="#D4D4D4"/>
<path d="M17.9473 12.75C18.9534 12.7502 19.7686 13.5661 19.7686 14.5723C19.7686 16.3446 21.2062 17.7812 22.9785 17.7812H34.8057C36.4709 17.781 37.8213 16.431 37.8213 14.7656C37.8213 13.6524 38.7237 12.75 39.8369 12.75H48.8574V29.3936C48.8574 30.1166 48.6319 30.7524 48.291 31.1973C47.9505 31.6417 47.5151 31.875 47.0723 31.875H10.5176C10.0747 31.875 9.63936 31.6417 9.29883 31.1973C8.95795 30.7524 8.73243 30.1166 8.73242 29.3936V12.75H17.9473Z" fill="#FAFAFA" stroke="#D4D4D4"/>
<path d="M13.3133 46.679V55.588H12.2693L7.41456 48.593H7.32755V55.588H6.24872V46.679H7.29275L12.1649 53.6914H12.2519V46.679H13.3133Z" fill="#AAAAAA"/>
<path d="M18.0474 55.7273C17.4442 55.7273 16.9149 55.5837 16.4596 55.2966C16.0072 55.0095 15.6534 54.6078 15.3982 54.0916C15.1458 53.5754 15.0197 52.9722 15.0197 52.2819C15.0197 51.5859 15.1458 50.9783 15.3982 50.4592C15.6534 49.9401 16.0072 49.537 16.4596 49.2499C16.9149 48.9628 17.4442 48.8192 18.0474 48.8192C18.6506 48.8192 19.1784 48.9628 19.6308 49.2499C20.0862 49.537 20.44 49.9401 20.6923 50.4592C20.9475 50.9783 21.0751 51.5859 21.0751 52.2819C21.0751 52.9722 20.9475 53.5754 20.6923 54.0916C20.44 54.6078 20.0862 55.0095 19.6308 55.2966C19.1784 55.5837 18.6506 55.7273 18.0474 55.7273ZM18.0474 54.805C18.5056 54.805 18.8826 54.6876 19.1784 54.4527C19.4742 54.2178 19.6932 53.9089 19.8353 53.5261C19.9774 53.1433 20.0485 52.7286 20.0485 52.2819C20.0485 51.8353 19.9774 51.4192 19.8353 51.0334C19.6932 50.6477 19.4742 50.336 19.1784 50.0982C18.8826 49.8604 18.5056 49.7415 18.0474 49.7415C17.5892 49.7415 17.2122 49.8604 16.9164 50.0982C16.6205 50.336 16.4016 50.6477 16.2595 51.0334C16.1174 51.4192 16.0463 51.8353 16.0463 52.2819C16.0463 52.7286 16.1174 53.1433 16.2595 53.5261C16.4016 53.9089 16.6205 54.2178 16.9164 54.4527C17.2122 54.6876 17.5892 54.805 18.0474 54.805Z" fill="#AAAAAA"/>
<path d="M28.976 55.588H26.2267V46.679H29.0978C29.9621 46.679 30.7016 46.8573 31.3164 47.214C31.9312 47.5678 32.4025 48.0768 32.7302 48.7409C33.0579 49.4021 33.2218 50.1939 33.2218 51.1161C33.2218 52.0441 33.0565 52.8431 32.7259 53.513C32.3952 54.18 31.9138 54.6934 31.2816 55.053C30.6494 55.4097 29.8809 55.588 28.976 55.588ZM27.3056 54.631H28.9064C29.6431 54.631 30.2535 54.4889 30.7378 54.2047C31.2222 53.9205 31.5832 53.5159 31.821 52.991C32.0588 52.4661 32.1777 51.8411 32.1777 51.1161C32.1777 50.3969 32.0603 49.7777 31.8254 49.2586C31.5905 48.7366 31.2396 48.3364 30.7726 48.0579C30.3057 47.7766 29.7243 47.636 29.0282 47.636H27.3056V54.631Z" fill="#AAAAAA"/>
<path d="M36.8585 55.7447C36.4351 55.7447 36.0508 55.6649 35.7057 55.5054C35.3606 55.343 35.0865 55.1095 34.8835 54.805C34.6805 54.4976 34.579 54.1264 34.579 53.6914C34.579 53.3086 34.6544 52.9983 34.8052 52.7605C34.956 52.5197 35.1576 52.3312 35.4099 52.1949C35.6622 52.0586 35.9406 51.9571 36.2451 51.8904C36.5525 51.8208 36.8614 51.7657 37.1717 51.7251C37.5777 51.6729 37.9069 51.6338 38.1592 51.6077C38.4144 51.5787 38.6 51.5308 38.716 51.4641C38.8349 51.3974 38.8944 51.2814 38.8944 51.1161V51.0813C38.8944 50.6521 38.7769 50.3186 38.542 50.0808C38.31 49.843 37.9576 49.7241 37.4849 49.7241C36.9948 49.7241 36.6105 49.8314 36.3321 50.046C36.0537 50.2606 35.858 50.4897 35.7449 50.7333L34.7704 50.3853C34.9444 49.9793 35.1764 49.6632 35.4664 49.4369C35.7594 49.2078 36.0784 49.0483 36.4235 48.9584C36.7715 48.8656 37.1137 48.8192 37.4501 48.8192C37.6647 48.8192 37.9112 48.8453 38.1896 48.8975C38.4709 48.9468 38.7421 49.0498 39.0031 49.2064C39.267 49.363 39.486 49.5994 39.66 49.9155C39.834 50.2316 39.921 50.655 39.921 51.1857V55.588H38.8944V54.6832H38.8422C38.7726 54.8282 38.6566 54.9834 38.4941 55.1487C38.3317 55.314 38.1157 55.4546 37.846 55.5706C37.5763 55.6866 37.2471 55.7447 36.8585 55.7447ZM37.0151 54.8224C37.4211 54.8224 37.7633 54.7427 38.0417 54.5832C38.323 54.4237 38.5348 54.2178 38.6769 53.9654C38.8219 53.7131 38.8944 53.4478 38.8944 53.1694V52.2297C38.8509 52.2819 38.7552 52.3298 38.6073 52.3733C38.4622 52.4139 38.294 52.4501 38.1026 52.482C37.9141 52.511 37.73 52.5371 37.5502 52.5603C37.3733 52.5806 37.2297 52.598 37.1195 52.6125C36.8527 52.6473 36.6033 52.7039 36.3713 52.7822C36.1422 52.8576 35.9566 52.9722 35.8145 53.1259C35.6753 53.2767 35.6057 53.4826 35.6057 53.7436C35.6057 54.1003 35.7376 54.37 36.0015 54.5527C36.2683 54.7325 36.6062 54.8224 37.0151 54.8224Z" fill="#AAAAAA"/>
<path d="M44.7007 48.9062V49.7763H41.238V48.9062H44.7007ZM42.2472 47.3054H43.2739V53.674C43.2739 53.964 43.3159 54.1815 43.4 54.3265C43.487 54.4686 43.5972 54.5643 43.7306 54.6136C43.8669 54.66 44.0105 54.6832 44.1613 54.6832C44.2744 54.6832 44.3672 54.6774 44.4397 54.6658C44.5122 54.6513 44.5702 54.6397 44.6137 54.631L44.8225 55.5532C44.7529 55.5793 44.6558 55.6054 44.5311 55.6315C44.4064 55.6605 44.2483 55.675 44.0569 55.675C43.7669 55.675 43.4827 55.6127 43.2043 55.488C42.9288 55.3633 42.6996 55.1733 42.5169 54.9181C42.3371 54.6629 42.2472 54.341 42.2472 53.9524V47.3054Z" fill="#AAAAAA"/>
<path d="M48.2113 55.7447C47.7879 55.7447 47.4036 55.6649 47.0585 55.5054C46.7134 55.343 46.4393 55.1095 46.2363 54.805C46.0333 54.4976 45.9318 54.1264 45.9318 53.6914C45.9318 53.3086 46.0072 52.9983 46.158 52.7605C46.3088 52.5197 46.5104 52.3312 46.7627 52.1949C47.015 52.0586 47.2934 51.9571 47.5979 51.8904C47.9053 51.8208 48.2142 51.7657 48.5245 51.7251C48.9305 51.6729 49.2597 51.6338 49.512 51.6077C49.7672 51.5787 49.9528 51.5308 50.0688 51.4641C50.1877 51.3974 50.2471 51.2814 50.2471 51.1161V51.0813C50.2471 50.6521 50.1297 50.3186 49.8948 50.0808C49.6628 49.843 49.3104 49.7241 48.8377 49.7241C48.3476 49.7241 47.9633 49.8314 47.6849 50.046C47.4065 50.2606 47.2107 50.4897 47.0976 50.7333L46.1232 50.3853C46.2972 49.9793 46.5292 49.6632 46.8192 49.4369C47.1121 49.2078 47.4312 49.0483 47.7763 48.9584C48.1243 48.8656 48.4665 48.8192 48.8029 48.8192C49.0175 48.8192 49.264 48.8453 49.5424 48.8975C49.8237 48.9468 50.0949 49.0498 50.3559 49.2064C50.6198 49.363 50.8388 49.5994 51.0128 49.9155C51.1868 50.2316 51.2738 50.655 51.2738 51.1857V55.588H50.2471V54.6832H50.1949C50.1253 54.8282 50.0093 54.9834 49.8469 55.1487C49.6845 55.314 49.4685 55.4546 49.1988 55.5706C48.9291 55.6866 48.5999 55.7447 48.2113 55.7447ZM48.3679 54.8224C48.7739 54.8224 49.1161 54.7427 49.3945 54.5832C49.6758 54.4237 49.8875 54.2178 50.0296 53.9654C50.1746 53.7131 50.2471 53.4478 50.2471 53.1694V52.2297C50.2036 52.2819 50.1079 52.3298 49.96 52.3733C49.815 52.4139 49.6468 52.4501 49.4554 52.482C49.2669 52.511 49.0828 52.5371 48.903 52.5603C48.726 52.5806 48.5825 52.598 48.4723 52.6125C48.2055 52.6473 47.9561 52.7039 47.7241 52.7822C47.495 52.8576 47.3093 52.9722 47.1672 53.1259C47.028 53.2767 46.9584 53.4826 46.9584 53.7436C46.9584 54.1003 47.0904 54.37 47.3543 54.5527C47.6211 54.7325 47.959 54.8224 48.3679 54.8224Z" fill="#AAAAAA"/>
</svg>
